<svg width="104" height="48" viewBox="0 0 104 58" fill="none" xmlns="http://www.w3.org/2000/svg">
<g filter="url(#filter0_d_155_3030)">
<path d="M48.2141 43.1817C45.3308 43.1817 42.823 42.6608 40.6908 41.6189C38.5586 40.5528 36.9231 39.0506 35.7843 37.1122C34.6456 35.1739 34.0762 32.9205 34.0762 30.3522C34.0762 26.7904 34.7425 23.6285 36.0751 20.8663C37.432 18.1041 39.2613 15.9719 41.5631 14.4697C43.8649 12.9432 46.4211 12.18 49.2317 12.18C51.8485 12.18 53.8354 12.8584 55.1922 14.2153C56.5491 15.5479 57.2275 17.3167 57.2275 19.5216C57.2275 20.9996 56.961 22.1868 56.4279 23.0833C55.9191 23.9798 55.1801 24.4281 54.2109 24.4281C53.5325 24.4281 52.9994 24.2706 52.6118 23.9556C52.2241 23.6406 52.0303 23.1802 52.0303 22.5745C52.0303 22.3564 52.0787 21.9566 52.1756 21.3751C52.321 20.6482 52.3937 20.0667 52.3937 19.6306C52.3937 17.4257 51.2186 16.3233 48.8683 16.3233C47.2691 16.3233 45.7427 16.8442 44.2889 17.8861C42.8351 18.9279 41.66 20.4665 40.7635 22.5018C39.867 24.5129 39.4188 26.9116 39.4188 29.698C39.4188 32.6055 40.2305 34.8589 41.8538 36.458C43.4772 38.0329 45.8759 38.8204 49.05 38.8204C50.6249 38.8204 52.212 38.6266 53.8111 38.2389C55.4345 37.827 57.2275 37.2091 59.1901 36.3853C59.5535 36.24 59.8564 36.1673 60.0987 36.1673C60.4864 36.1673 60.7771 36.3126 60.971 36.6034C61.1648 36.8942 61.2617 37.2697 61.2617 37.7301C61.2617 39.2081 60.4621 40.2984 58.863 41.0011C57.1427 41.7522 55.3497 42.3095 53.484 42.6729C51.6426 43.0121 49.8859 43.1817 48.2141 43.1817Z" fill="white"/>
</g>
<g filter="url(#filter1_d_155_3030)">
<path d="M25.6632 29.6435C26.5558 29.6435 27.2129 29.8418 27.6344 30.2386C28.0807 30.6105 28.2915 31.2304 28.2667 32.0982C28.1923 33.5364 27.8576 36.425 27.2625 40.7642L26.9278 43.033C26.4071 46.7523 25.9979 49.3682 25.7004 50.8807C25.4028 52.418 24.5226 53.1867 23.0597 53.1867C21.6959 53.1867 21.0141 52.48 21.0141 51.0667C21.0141 50.8187 21.0265 50.6328 21.0513 50.5088C21.1504 49.5418 21.3364 48.302 21.6092 46.7895C21.6835 46.2936 21.7703 45.7357 21.8695 45.1158C21.9687 44.4959 22.0679 43.8264 22.1671 43.1074C20.2578 43.8264 18.3362 44.186 16.4021 44.186C13.6251 44.186 11.1827 43.6529 9.0751 42.5867C6.9675 41.4957 5.331 39.9584 4.16562 37.9747C3.00024 35.9911 2.41755 33.6851 2.41755 31.0568C2.41755 27.3871 3.11182 24.1513 4.50036 21.3494C5.8889 18.5228 7.79814 16.3408 10.2281 14.8035C12.6828 13.2414 15.4227 12.4603 18.4477 12.4603C21.3488 12.4603 23.5184 13.1422 24.9565 14.5059C26.4195 15.8449 27.1509 17.6301 27.1509 19.8617C27.1509 21.3246 26.8782 22.5024 26.3327 23.3951C25.812 24.2629 25.0557 24.6968 24.0639 24.6968C23.3944 24.6968 22.8489 24.5356 22.4274 24.2133C22.0307 23.891 21.8323 23.4446 21.8323 22.8744C21.8323 22.6264 21.8819 22.2049 21.9811 21.6098C22.1299 20.9155 22.2042 20.37 22.2042 19.9733C22.2042 18.9319 21.8819 18.126 21.2372 17.5557C20.6173 16.9855 19.5635 16.7003 18.0758 16.7003C16.2658 16.7003 14.5797 17.221 13.0176 18.2624C11.4803 19.3038 10.2405 20.8659 9.29826 22.9487C8.35604 25.0068 7.88492 27.4863 7.88492 30.3873C7.88492 33.3628 8.69077 35.6688 10.3025 37.3053C11.939 38.917 14.2945 39.7228 17.3691 39.7228C19.08 39.7228 20.8777 39.4005 22.7621 38.7558C22.9357 37.1441 23.0969 35.5696 23.2456 34.0323H20.0099C19.1172 34.0323 18.4354 33.8711 17.9642 33.5488C17.5179 33.2016 17.2948 32.6437 17.2948 31.8751C17.2948 31.1808 17.5303 30.6353 18.0014 30.2386C18.4725 29.8418 19.1048 29.6435 19.8983 29.6435H25.6632Z" fill="white"/>
</g>
<g filter="url(#filter2_d_155_3030)">
<path d="M36.6655 26.3953L38.7453 25.8397L39.5759 28.9779C39.728 29.5526 39.3857 30.1428 38.8114 30.2962C38.2371 30.4497 37.6483 30.1082 37.4962 29.5335L36.6655 26.3953Z" fill="#E4FBFF"/>
<ellipse cx="4.09116" cy="4.10543" rx="4.09116" ry="4.10543" transform="matrix(0.999421 0.00191016 -0.00189472 1.00057 29.2402 20.4338)" fill="white"/>
<ellipse cx="3.87583" cy="3.88936" rx="3.87583" ry="3.88936" transform="matrix(0.999421 0.00191016 -0.00189472 1.00057 26.2231 22.5898)" fill="white"/>
<ellipse cx="3.22986" cy="3.24113" rx="3.22986" ry="3.24113" transform="matrix(0.999421 0.00191016 -0.00189472 1.00057 32.6768 23.8994)" fill="white"/>
<g filter="url(#filter3_d_155_3030)">
<path fill-rule="evenodd" clip-rule="evenodd" d="M37.4013 24.2776C37.2623 22.139 35.4937 20.4457 33.329 20.4416C31.7641 20.4386 30.4028 21.3193 29.7131 22.6154C27.7532 22.805 26.2191 24.4622 26.2153 26.4815C26.2112 28.6308 27.9422 30.3764 30.0815 30.3805C31.3338 30.3829 32.4484 29.788 33.1583 28.8632C33.7273 29.7791 34.7386 30.3893 35.8925 30.3915C37.6753 30.3949 39.1232 28.9457 39.1266 27.1547C39.129 25.9065 38.4291 24.8217 37.4013 24.2776Z" fill="white"/>
</g>
<mask id="mask0_155_3030" style="mask-type:alpha" maskUnits="userSpaceOnUse" x="26" y="20" width="14" height="11">
<path fill-rule="evenodd" clip-rule="evenodd" d="M37.4013 24.2776C37.2623 22.139 35.4937 20.4457 33.329 20.4416C31.7641 20.4386 30.4028 21.3193 29.7131 22.6154C27.7532 22.805 26.2191 24.4622 26.2153 26.4815C26.2112 28.6308 27.9422 30.3764 30.0815 30.3805C31.3338 30.3829 32.4484 29.788 33.1583 28.8632C33.7273 29.7791 34.7386 30.3893 35.8925 30.3915C37.6753 30.3949 39.1232 28.9457 39.1266 27.1547C39.129 25.9065 38.4291 24.8217 37.4013 24.2776Z" fill="white"/>
</mask>
<g mask="url(#mask0_155_3030)">
<path d="M28.6088 22.4893C23.515 22.818 21.9792 25.1575 21.848 26.2862L26.6112 27.7987C29.3995 25.8919 33.7026 22.1606 28.6088 22.4893Z" fill="url(#paint0_linear_155_3030)"/>
</g>
<g filter="url(#filter4_d_155_3030)">
<path d="M26.2158 26.4814L39.1278 26.5061L36.3825 40.3235C36.2561 40.9596 35.6979 41.4174 35.0501 41.4161L30.237 41.4069C29.5892 41.4057 29.0327 40.9458 28.9088 40.3093L26.2158 26.4814Z" fill="url(#paint1_linear_155_3030)"/>
<path d="M29.0751 40.2768L26.4216 26.6515L38.9213 26.6754L36.2163 40.2904C36.1057 40.847 35.6173 41.2475 35.0504 41.2464L30.2373 41.2372C29.6705 41.2362 29.1836 40.8338 29.0751 40.2768Z" stroke="url(#paint2_linear_155_3030)" stroke-width="0.339159"/>
</g>
<mask id="mask1_155_3030" style="mask-type:alpha" maskUnits="userSpaceOnUse" x="26" y="26" width="14" height="16">
<path d="M26.2153 26.4814L39.1273 26.5061L36.382 40.3235C36.2556 40.9596 35.6974 41.4174 35.0496 41.4161L30.2365 41.4069C29.5887 41.4057 29.0322 40.9458 28.9083 40.3093L26.2153 26.4814Z" fill="url(#paint3_linear_155_3030)"/>
</mask>
<g mask="url(#mask1_155_3030)">
<g filter="url(#filter5_f_155_3030)">
<path fill-rule="evenodd" clip-rule="evenodd" d="M38.7176 27.9496L36.353 39.1015C36.0045 40.7446 34.5718 41.9276 32.8997 41.9526L29.8605 41.9982L29.8436 40.8608L32.8828 40.8153C34.0269 40.7981 35.0072 39.9887 35.2456 38.8645L37.6102 27.7126L38.7176 27.9496Z" fill="#0C8EFE"/>
</g>
</g>
<mask id="mask2_155_3030" style="mask-type:alpha" maskUnits="userSpaceOnUse" x="26" y="26" width="14" height="16">
<path d="M26.2153 26.4814L39.1273 26.5061L36.382 40.3235C36.2556 40.9596 35.6974 41.4174 35.0496 41.4161L30.2365 41.4069C29.5887 41.4057 29.0322 40.9458 28.9083 40.3093L26.2153 26.4814Z" fill="url(#paint4_linear_155_3030)"/>
</mask>
<g mask="url(#mask2_155_3030)">
<g filter="url(#filter6_f_155_3030)">
<path d="M28.7373 26.4861L36.9725 26.5018L35.249 38.1034C35.1501 38.7696 34.5781 39.2624 33.9054 39.2611L31.7561 39.257C31.0834 39.2558 30.5133 38.7608 30.4169 38.0942L28.7373 26.4861Z" fill="#19EAFF"/>
</g>
<g filter="url(#filter7_f_155_3030)">
<rect width="13.8831" height="1.51547" rx="0.678318" transform="matrix(0.994719 0.0950275 -0.0942998 0.996294 26.4517 25.593)" fill="#0007CA" fill-opacity="0.5"/>
</g>
</g>
<rect width="13.8807" height="1.51574" rx="0.678318" transform="matrix(0.999169 0.0207994 -0.0206328 1.0004 25.7568 25.7131)" fill="url(#paint5_linear_155_3030)"/>
<mask id="mask3_155_3030" style="mask-type:alpha" maskUnits="userSpaceOnUse" x="26" y="20" width="14" height="11">
<path fill-rule="evenodd" clip-rule="evenodd" d="M37.4013 24.2776C37.2623 22.139 35.4937 20.4457 33.329 20.4416C31.7641 20.4386 30.4028 21.3193 29.7131 22.6154C27.7532 22.805 26.2191 24.4622 26.2153 26.4815C26.2112 28.6308 27.9422 30.3764 30.0815 30.3805C31.3338 30.3829 32.4484 29.788 33.1583 28.8632C33.7273 29.7791 34.7386 30.3893 35.8925 30.3915C37.6753 30.3949 39.1232 28.9457 39.1266 27.1547C39.129 25.9065 38.4291 24.8217 37.4013 24.2776Z" fill="white"/>
</mask>
<g mask="url(#mask3_155_3030)">
<g filter="url(#filter8_f_155_3030)">
<ellipse cx="1.72259" cy="1.7286" rx="1.72259" ry="1.7286" transform="matrix(0.999421 0.00191016 -0.00189472 1.00057 33.689 20.5205)" fill="#008FDF"/>
</g>
</g>
<g filter="url(#filter9_f_155_3030)">
<rect width="2.26517" height="2.65335" rx="1.13259" transform="matrix(0.966119 -0.258096 0.255871 0.966711 33.2378 26.7241)" fill="#1378EB"/>
</g>
<path d="M34.8188 25.3196L36.6425 24.8324L37.6619 28.6836C37.7953 29.1875 37.4951 29.7051 36.9915 29.8396C36.4879 29.9741 35.9716 29.6747 35.8382 29.1708L34.8188 25.3196Z" fill="url(#paint6_linear_155_3030)"/>
<path d="M32.3882 24.9895L34.5766 24.4049L35.3537 27.3407C35.5137 27.9454 35.1536 28.5665 34.5493 28.7279C33.9449 28.8894 33.3253 28.5301 33.1653 27.9254L32.3882 24.9895Z" fill="url(#paint7_linear_155_3030)"/>
<mask id="mask4_155_3030" style="mask-type:alpha" maskUnits="userSpaceOnUse" x="26" y="20" width="14" height="11">
<path fill-rule="evenodd" clip-rule="evenodd" d="M37.4013 24.2776C37.2623 22.139 35.4937 20.4457 33.329 20.4416C31.7641 20.4386 30.4028 21.3193 29.7131 22.6154C27.7532 22.805 26.2191 24.4622 26.2153 26.4815C26.2112 28.6308 27.9422 30.3764 30.0815 30.3805C31.3338 30.3829 32.4484 29.788 33.1583 28.8632C33.7273 29.7791 34.7386 30.3893 35.8925 30.3915C37.6753 30.3949 39.1232 28.9457 39.1266 27.1547C39.129 25.9065 38.4291 24.8217 37.4013 24.2776Z" fill="white"/>
</mask>
<g mask="url(#mask4_155_3030)">
<path d="M33.6203 18.5789C30.9495 19.5539 26.6674 21.9665 30.906 23.8159C35.1446 25.6654 37.0398 24.8583 37.4576 24.2236C37.4737 24.2847 37.482 24.0209 37.3859 22.4772C37.2898 20.9335 34.8355 19.2351 33.6203 18.5789Z" fill="url(#paint8_linear_155_3030)"/>
</g>
<path d="M35.7862 21.2834C35.8876 20.8555 36.3302 20.0207 37.2889 20.1044" stroke="url(#paint9_linear_155_3030)" stroke-width="0.678318" stroke-linecap="round"/>
<g filter="url(#filter10_di_155_3030)">
<ellipse cx="1.72259" cy="1.7286" rx="1.72259" ry="1.7286" transform="matrix(0.999421 0.00191016 -0.00189472 1.00057 33.5444 20.2258)" fill="url(#paint10_linear_155_3030)"/>
</g>
<g filter="url(#filter11_f_155_3030)">
<ellipse cx="0.980976" cy="0.760114" rx="0.980976" ry="0.760114" transform="matrix(0.999421 0.00191016 -0.00189472 1.00057 34.5103 20.6938)" fill="#FFAF36"/>
</g>
<g filter="url(#filter12_d_155_3030)">
<mask id="mask5_155_3030" style="mask-type:alpha" maskUnits="userSpaceOnUse" x="26" y="17" width="5" height="7">
<path d="M26.3022 18.2263L27.7205 17.4073L30.9809 23.1058C30.7331 23.172 30.5026 23.2915 30.3053 23.4561L30.2429 23.5081C30.1342 23.5988 30.0169 23.6784 29.8926 23.7458L29.5627 23.9248L26.3022 18.2263Z" fill="#FF9BC5"/>
</mask>
<g mask="url(#mask5_155_3030)">
<rect width="1.63677" height="12.742" transform="matrix(0.866474 -0.500377 0.496331 0.867472 25.3682 16.5947)" fill="#FCE810"/>
<mask id="mask6_155_3030" style="mask-type:alpha" maskUnits="userSpaceOnUse" x="25" y="15" width="9" height="13">
<rect width="1.63677" height="12.742" transform="matrix(0.866474 -0.500377 0.496331 0.867472 25.3682 16.5947)" fill="#FF9BC5"/>
</mask>
<g mask="url(#mask6_155_3030)">
<path fill-rule="evenodd" clip-rule="evenodd" d="M26.5537 15.3686L25.6596 17.1036L26.2419 18.1213L27.136 16.3863L26.5537 15.3686ZM27.7181 17.4039L26.824 19.1389L27.4063 20.1566L28.3004 18.4217L27.7181 17.4039ZM27.989 21.1743L28.8832 19.4393L29.4655 20.457L28.5713 22.192L27.989 21.1743ZM30.0472 21.4747L29.1531 23.2097L29.7354 24.2274L30.6295 22.4924L30.0472 21.4747ZM30.3181 25.2453L31.2123 23.5104L31.7946 24.5281L30.9004 26.263L30.3181 25.2453ZM32.3763 25.5458L31.4822 27.2807L32.0645 28.2984L32.9586 26.5635L32.3763 25.5458Z" fill="#FD5C9F"/>
<g style="mix-blend-mode:multiply">
<rect width="1.85187" height="8.78329" transform="matrix(0.866474 -0.500377 0.496331 0.867472 26.6777 19.0269)" fill="url(#paint11_linear_155_3030)"/>
</g>
</g>
</g>
</g>
<ellipse cx="0.831137" cy="0.253786" rx="0.831137" ry="0.253786" transform="matrix(0.882464 -0.471465 0.467594 0.88337 26.2002 18.0103)" fill="url(#paint12_linear_155_3030)"/>
<g filter="url(#filter13_f_155_3030)">
<path d="M30.3602 39.4592L30.2072 32.2417L32.244 39.9368L30.3602 39.4592Z" fill="#1AB3FE" fill-opacity="0.3"/>
</g>
</g>
<path d="M62.405 29.1672C62.4654 29.1672 62.5119 29.1974 62.5445 29.2578C62.577 29.3183 62.5933 29.395 62.5933 29.488C62.5933 29.7111 62.5259 29.8436 62.391 29.8855C62.1121 29.9831 61.8053 30.0389 61.4705 30.0528C61.3822 30.4434 61.2078 30.7572 60.9475 30.9943C60.6871 31.2267 60.3919 31.343 60.0618 31.343C59.7829 31.343 59.5435 31.2756 59.3435 31.1407C59.1483 31.0059 58.9995 30.8269 58.8972 30.6038C58.7949 30.3806 58.7438 30.1388 58.7438 29.8785C58.7438 29.5252 58.8112 29.2113 58.946 28.937C59.0809 28.6581 59.2668 28.4419 59.5039 28.2885C59.741 28.1304 60.0037 28.0514 60.292 28.0514C60.6453 28.0514 60.9289 28.1746 61.1428 28.421C61.3613 28.6628 61.4891 28.9626 61.5263 29.3206C61.7448 29.3067 62.0052 29.2602 62.3074 29.1811C62.3446 29.1718 62.3771 29.1672 62.405 29.1672ZM60.1176 30.6038C60.2664 30.6038 60.3942 30.5433 60.5012 30.4224C60.6128 30.3016 60.6871 30.1272 60.7243 29.8994C60.5802 29.8018 60.4686 29.6739 60.3896 29.5159C60.3152 29.3578 60.278 29.1904 60.278 29.0138C60.278 28.9394 60.285 28.865 60.2989 28.7906H60.2641C60.0781 28.7906 59.9224 28.8813 59.7968 29.0626C59.676 29.2392 59.6155 29.4903 59.6155 29.8157C59.6155 30.0714 59.6643 30.2667 59.762 30.4015C59.8642 30.5363 59.9828 30.6038 60.1176 30.6038ZM64.7772 29.3555C64.9074 29.3555 64.9725 29.4531 64.9725 29.6484C64.9725 30.0156 64.6843 30.1993 64.1078 30.1993C63.9962 30.1993 63.8358 30.1784 63.6266 30.1365C63.687 30.4248 63.7358 30.7456 63.773 31.0989C63.8149 31.4476 63.8358 31.7358 63.8358 31.9636C63.8358 32.4657 63.7544 32.8493 63.5917 33.1143C63.429 33.3793 63.2151 33.5118 62.9501 33.5118C62.6154 33.5118 62.376 33.2747 62.2318 32.8005C62.0924 32.3263 62.0226 31.6103 62.0226 30.6526C62.0226 29.7599 62.1179 28.8557 62.3086 27.9398C62.5038 27.0193 62.7688 26.2592 63.1036 25.6594C63.4429 25.055 63.8149 24.7528 64.2194 24.7528C64.4379 24.7528 64.6076 24.8505 64.7284 25.0457C64.854 25.241 64.9167 25.5037 64.9167 25.8338C64.9167 26.9263 64.2635 28.1165 62.9571 29.4043C62.9106 29.8599 62.8874 30.2597 62.8874 30.6038C62.8874 31.0826 62.9036 31.5731 62.9362 32.0752C62.9687 32.582 63.0222 32.8353 63.0966 32.8353C63.2361 32.8353 63.3058 32.5936 63.3058 32.1101C63.3058 31.7474 63.2802 31.3964 63.2291 31.0571C63.1826 30.7177 63.1175 30.3597 63.0338 29.9831C63.0292 29.9227 63.0478 29.846 63.0896 29.753C63.1361 29.66 63.1919 29.5786 63.257 29.5089C63.3221 29.4392 63.3802 29.4043 63.4313 29.4043C63.5243 29.4043 63.6359 29.4089 63.7661 29.4182C63.8079 29.4229 63.8567 29.4252 63.9125 29.4252C64.0985 29.4252 64.3054 29.4089 64.5332 29.3764C64.5704 29.3717 64.6099 29.3671 64.6517 29.3624C64.6936 29.3578 64.7354 29.3555 64.7772 29.3555ZM64.0729 25.4432C63.9892 25.4432 63.8846 25.585 63.7591 25.8686C63.6382 26.1522 63.5173 26.5288 63.3965 26.9984C63.2756 27.4633 63.171 27.9561 63.0826 28.4768C63.4546 28.0537 63.7405 27.6144 63.9404 27.1588C64.1403 26.6985 64.2426 26.2684 64.2472 25.8686C64.2472 25.585 64.1891 25.4432 64.0729 25.4432ZM67.2289 29.3555C67.3591 29.3555 67.4242 29.4531 67.4242 29.6484C67.4242 30.0156 67.136 30.1993 66.5595 30.1993C66.4479 30.1993 66.2875 30.1784 66.0783 30.1365C66.1387 30.4248 66.1875 30.7456 66.2247 31.0989C66.2666 31.4476 66.2875 31.7358 66.2875 31.9636C66.2875 32.4657 66.2061 32.8493 66.0434 33.1143C65.8807 33.3793 65.6668 33.5118 65.4018 33.5118C65.0671 33.5118 64.8277 33.2747 64.6835 32.8005C64.5441 32.3263 64.4743 31.6103 64.4743 30.6526C64.4743 29.7599 64.5696 28.8557 64.7602 27.9398C64.9555 27.0193 65.2205 26.2592 65.5553 25.6594C65.8946 25.055 66.2666 24.7528 66.671 24.7528C66.8896 24.7528 67.0592 24.8505 67.1801 25.0457C67.3056 25.241 67.3684 25.5037 67.3684 25.8338C67.3684 26.9263 66.7152 28.1165 65.4088 29.4043C65.3623 29.8599 65.3391 30.2597 65.3391 30.6038C65.3391 31.0826 65.3553 31.5731 65.3879 32.0752C65.4204 32.582 65.4739 32.8353 65.5483 32.8353C65.6878 32.8353 65.7575 32.5936 65.7575 32.1101C65.7575 31.7474 65.7319 31.3964 65.6808 31.0571C65.6343 30.7177 65.5692 30.3597 65.4855 29.9831C65.4809 29.9227 65.4995 29.846 65.5413 29.753C65.5878 29.66 65.6436 29.5786 65.7087 29.5089C65.7738 29.4392 65.8319 29.4043 65.883 29.4043C65.976 29.4043 66.0876 29.4089 66.2178 29.4182C66.2596 29.4229 66.3084 29.4252 66.3642 29.4252C66.5502 29.4252 66.7571 29.4089 66.9849 29.3764C67.0221 29.3717 67.0616 29.3671 67.1034 29.3624C67.1453 29.3578 67.1871 29.3555 67.2289 29.3555ZM66.5246 25.4432C66.4409 25.4432 66.3363 25.585 66.2108 25.8686C66.0899 26.1522 65.969 26.5288 65.8481 26.9984C65.7273 27.4633 65.6227 27.9561 65.5343 28.4768C65.9063 28.0537 66.1922 27.6144 66.3921 27.1588C66.592 26.6985 66.6943 26.2684 66.6989 25.8686C66.6989 25.585 66.6408 25.4432 66.5246 25.4432ZM70.0084 29.753C70.0688 29.753 70.1153 29.7809 70.1479 29.8367C70.1851 29.8924 70.2037 29.9692 70.2037 30.0668C70.2037 30.2528 70.1595 30.3969 70.0712 30.4992C69.8991 30.7084 69.6551 30.9013 69.3389 31.078C69.0274 31.2546 68.6927 31.343 68.3347 31.343C67.8465 31.343 67.4676 31.2105 67.198 30.9455C66.9283 30.6805 66.7935 30.3178 66.7935 29.8576C66.7935 29.5368 66.8609 29.2392 66.9958 28.9649C67.1306 28.686 67.3165 28.4652 67.5537 28.3024C67.7954 28.1397 68.0674 28.0584 68.3696 28.0584C68.6392 28.0584 68.8554 28.1397 69.0181 28.3024C69.1808 28.4605 69.2622 28.6767 69.2622 28.951C69.2622 29.2718 69.146 29.5484 68.9135 29.7809C68.6857 30.0087 68.2975 30.19 67.7489 30.3248C67.8651 30.5387 68.086 30.6456 68.4114 30.6456C68.6206 30.6456 68.8577 30.5735 69.1227 30.4294C69.3924 30.2806 69.6248 30.0877 69.8201 29.8506C69.8759 29.7855 69.9387 29.753 70.0084 29.753ZM68.251 28.7418C68.079 28.7418 67.9326 28.8417 67.8117 29.0417C67.6954 29.2416 67.6373 29.4833 67.6373 29.7669V29.7809C67.9116 29.7158 68.1278 29.6181 68.2859 29.488C68.444 29.3578 68.523 29.2067 68.523 29.0347C68.523 28.9463 68.4974 28.8766 68.4463 28.8255C68.3998 28.7697 68.3347 28.7418 68.251 28.7418ZM72.1324 29.9622C72.1929 29.9622 72.2394 29.9901 72.2719 30.0459C72.3091 30.1017 72.3277 30.1784 72.3277 30.276C72.3277 30.4434 72.2882 30.5875 72.2091 30.7084C72.079 30.9083 71.9069 31.064 71.6931 31.1756C71.4839 31.2872 71.2328 31.343 70.9399 31.343C70.4936 31.343 70.1472 31.2105 69.9008 30.9455C69.6544 30.6758 69.5312 30.3132 69.5312 29.8576C69.5312 29.5368 69.5986 29.2392 69.7335 28.9649C69.8683 28.686 70.0543 28.4652 70.2914 28.3024C70.5331 28.1397 70.8051 28.0584 71.1073 28.0584C71.3769 28.0584 71.5931 28.1397 71.7558 28.3024C71.9186 28.4605 71.9999 28.6767 71.9999 28.951C71.9999 29.2718 71.8837 29.5484 71.6512 29.7809C71.4234 30.0087 71.0329 30.19 70.4797 30.3248C70.5912 30.5387 70.7795 30.6456 71.0445 30.6456C71.2351 30.6456 71.3909 30.6014 71.5118 30.5131C71.6373 30.4248 71.7814 30.276 71.9441 30.0668C71.9999 29.9971 72.0627 29.9622 72.1324 29.9622ZM70.9887 28.7418C70.8167 28.7418 70.6703 28.8417 70.5494 29.0417C70.4332 29.2416 70.3751 29.4833 70.3751 29.7669V29.7809C70.6494 29.7158 70.8655 29.6181 71.0236 29.488C71.1817 29.3578 71.2607 29.2067 71.2607 29.0347C71.2607 28.9463 71.2351 28.8766 71.184 28.8255C71.1375 28.7697 71.0724 28.7418 70.9887 28.7418ZM79.6485 29.1881C79.351 29.6437 78.9907 30.0459 78.5676 30.3946L79.1743 31.064C79.2813 31.1756 79.3347 31.2918 79.3347 31.4127C79.3347 31.5289 79.2882 31.6242 79.1953 31.6986C79.1023 31.7777 78.9791 31.8172 78.8256 31.8172C78.6118 31.8172 78.4491 31.7521 78.3375 31.6219L77.7517 30.9315C77.2031 31.2058 76.6777 31.343 76.1756 31.343C75.8037 31.343 75.4783 31.2849 75.1993 31.1686C74.9204 31.0524 74.7042 30.892 74.5508 30.6874C74.402 30.4829 74.3276 30.2551 74.3276 30.004C74.3276 29.6646 74.4322 29.3485 74.6414 29.0556C74.8553 28.7581 75.2017 28.4652 75.6805 28.1769C75.4109 27.6841 75.276 27.2494 75.276 26.8728C75.276 26.5381 75.3458 26.2429 75.4852 25.9872C75.6247 25.7315 75.8177 25.5339 76.0641 25.3944C76.3151 25.2549 76.601 25.1852 76.9218 25.1852C77.331 25.1852 77.6471 25.3038 77.8703 25.5409C78.0981 25.7733 78.212 26.0941 78.212 26.5032C78.212 26.8426 78.112 27.1634 77.9121 27.4656C77.7168 27.7631 77.3681 28.0677 76.866 28.3792C77.1636 28.7836 77.5564 29.2602 78.0446 29.8088C78.3514 29.5345 78.656 29.1881 78.9581 28.7697C79.0093 28.6953 79.0697 28.6442 79.1395 28.6163C79.2092 28.5837 79.2952 28.5674 79.3975 28.5674C79.6671 28.5674 79.802 28.6442 79.802 28.7976C79.802 28.8952 79.7508 29.0254 79.6485 29.1881ZM76.873 25.9174C76.6545 25.9174 76.4825 26.0011 76.357 26.1685C76.2314 26.3312 76.1687 26.5358 76.1687 26.7822C76.1687 27.0751 76.2663 27.3959 76.4616 27.7445C76.8242 27.5307 77.0706 27.3238 77.2008 27.1239C77.331 26.924 77.396 26.7055 77.396 26.4684C77.396 26.2963 77.3519 26.1615 77.2635 26.0639C77.1752 25.9663 77.045 25.9174 76.873 25.9174ZM76.2175 30.5759C76.5801 30.5759 76.9265 30.4968 77.2566 30.3388C76.7638 29.7483 76.3756 29.2439 76.092 28.8255C75.5666 29.1695 75.3039 29.5275 75.3039 29.8994C75.3039 30.1133 75.3853 30.2806 75.548 30.4015C75.7107 30.5178 75.9339 30.5759 76.2175 30.5759ZM87.8443 26.8449C87.8443 27.2401 87.7048 27.5818 87.4258 27.8701C87.1469 28.1537 86.7401 28.3582 86.2055 28.4838C86.4937 28.5628 86.7122 28.693 86.861 28.8743C87.0098 29.051 87.0841 29.2555 87.0841 29.488C87.0841 29.8553 86.9679 30.1737 86.7355 30.4434C86.5076 30.713 86.1729 30.9222 85.7312 31.071C85.2896 31.2151 84.7572 31.2872 84.1343 31.2872C83.9018 31.2872 83.7158 31.2802 83.5764 31.2663C83.5717 31.3964 83.5159 31.4941 83.409 31.5592C83.3021 31.6242 83.1649 31.6568 82.9976 31.6568C82.8302 31.6568 82.714 31.6196 82.6489 31.5452C82.5884 31.4708 82.5629 31.3616 82.5722 31.2174C82.614 30.5666 82.6954 29.8855 82.8162 29.1742C82.9371 28.4582 83.0905 27.7678 83.2765 27.103C83.309 26.9867 83.3741 26.9054 83.4718 26.8589C83.5694 26.8124 83.6972 26.7892 83.8553 26.7892C84.1389 26.7892 84.2807 26.8682 84.2807 27.0263C84.2807 27.0913 84.2668 27.1657 84.2389 27.2494C84.118 27.612 83.9971 28.1049 83.8762 28.7278C83.7554 29.3462 83.6694 29.9366 83.6182 30.4992C83.8414 30.5178 84.0227 30.5271 84.1622 30.5271C84.813 30.5271 85.2896 30.4341 85.5918 30.2481C85.8986 30.0575 86.052 29.8157 86.052 29.5228C86.052 29.3183 85.9637 29.1463 85.787 29.0068C85.615 28.8673 85.3244 28.7906 84.9153 28.7767C84.8223 28.772 84.7572 28.7488 84.7201 28.7069C84.6829 28.6651 84.6643 28.5977 84.6643 28.5047C84.6643 28.3699 84.6922 28.2606 84.748 28.1769C84.8037 28.0932 84.906 28.0491 85.0548 28.0444C85.3849 28.0351 85.6824 27.9863 85.9474 27.898C86.2171 27.8096 86.4286 27.6864 86.582 27.5284C86.7355 27.3656 86.8122 27.1774 86.8122 26.9635C86.8122 26.6938 86.6797 26.4823 86.4147 26.3289C86.1497 26.1708 85.7429 26.0918 85.1943 26.0918C84.6968 26.0918 84.2156 26.1569 83.7507 26.287C83.2858 26.4126 82.8906 26.573 82.5652 26.7682C82.4164 26.8566 82.2909 26.9007 82.1886 26.9007C82.1049 26.9007 82.0398 26.8728 81.9933 26.817C81.9515 26.7566 81.9306 26.6822 81.9306 26.5939C81.9306 26.4777 81.9538 26.3777 82.0003 26.294C82.0515 26.2103 82.17 26.115 82.356 26.0081C82.7465 25.7849 83.2044 25.6106 83.7298 25.4851C84.2551 25.3595 84.7921 25.2968 85.3407 25.2968C86.1822 25.2968 86.8098 25.4386 87.2236 25.7222C87.6374 26.0058 87.8443 26.38 87.8443 26.8449ZM88.4727 31.343C88.1844 31.343 87.9543 31.2384 87.7823 31.0292C87.6103 30.8199 87.5242 30.5456 87.5242 30.2063C87.5242 29.8343 87.6103 29.4833 87.7823 29.1532C87.9543 28.8185 88.1821 28.5512 88.4657 28.3513C88.7539 28.1467 89.0585 28.0444 89.3792 28.0444C89.4815 28.0444 89.5489 28.0653 89.5815 28.1072C89.6187 28.1444 89.6489 28.2141 89.6721 28.3164C89.7698 28.2978 89.8721 28.2885 89.979 28.2885C90.2068 28.2885 90.3207 28.3699 90.3207 28.5326C90.3207 28.6302 90.2858 28.8627 90.2161 29.2299C90.1092 29.7646 90.0557 30.1365 90.0557 30.3457C90.0557 30.4155 90.072 30.4713 90.1045 30.5131C90.1417 30.5549 90.1882 30.5759 90.244 30.5759C90.3323 30.5759 90.4392 30.5201 90.5648 30.4085C90.6903 30.2923 90.86 30.1063 91.0739 29.8506C91.1296 29.7855 91.1924 29.753 91.2621 29.753C91.3226 29.753 91.3691 29.7809 91.4016 29.8367C91.4388 29.8924 91.4574 29.9692 91.4574 30.0668C91.4574 30.2528 91.4132 30.3969 91.3249 30.4992C91.1343 30.7363 90.9321 30.9362 90.7182 31.0989C90.5043 31.2616 90.2974 31.343 90.0975 31.343C89.9441 31.343 89.8023 31.2918 89.6721 31.1896C89.5466 31.0826 89.4513 30.9385 89.3862 30.7572C89.1445 31.1477 88.8399 31.343 88.4727 31.343ZM88.7237 30.6386C88.826 30.6386 88.9236 30.5782 89.0166 30.4573C89.1096 30.3364 89.177 30.176 89.2189 29.9761L89.4769 28.693C89.2816 28.6976 89.1003 28.772 88.9329 28.9161C88.7702 29.0556 88.64 29.2416 88.5424 29.474C88.4448 29.7065 88.396 29.9529 88.396 30.2132C88.396 30.3574 88.4238 30.4643 88.4796 30.534C88.5401 30.6038 88.6214 30.6386 88.7237 30.6386ZM94.9214 29.753C94.9819 29.753 95.0284 29.7809 95.0609 29.8367C95.0981 29.8924 95.1167 29.9692 95.1167 30.0668C95.1167 30.2528 95.0725 30.3969 94.9842 30.4992C94.775 30.7549 94.5634 30.9594 94.3496 31.1128C94.1357 31.2663 93.8823 31.343 93.5895 31.343C93.2315 31.343 92.9432 31.2407 92.7247 31.0361C92.5062 30.8316 92.3969 30.5596 92.3969 30.2202C92.3969 30.0389 92.4899 29.9087 92.6759 29.8297C92.8805 29.7413 93.0269 29.6484 93.1152 29.5507C93.2036 29.4485 93.2477 29.3253 93.2477 29.1811C93.2477 29.0974 93.2291 29.0347 93.1919 28.9928C93.1594 28.951 93.1176 28.9301 93.0664 28.9301C92.9409 28.9301 92.8014 29.0207 92.648 29.202C92.4992 29.3834 92.3598 29.6181 92.2296 29.9064C92.0994 30.19 91.9971 30.4829 91.9227 30.7851C91.8716 31.0036 91.8112 31.1524 91.7414 31.2314C91.6763 31.3058 91.5717 31.343 91.4276 31.343C91.2835 31.343 91.1766 31.2918 91.1068 31.1896C91.0417 31.0826 90.9976 30.9199 90.9743 30.7014C90.9511 30.4829 90.9394 30.1621 90.9394 29.739C90.9394 29.0231 91.0115 28.2769 91.1556 27.5005C91.3044 26.7241 91.5206 26.0732 91.8042 25.5478C92.0924 25.0178 92.4365 24.7528 92.8363 24.7528C93.0502 24.7528 93.2222 24.8458 93.3523 25.0318C93.4872 25.2131 93.5546 25.4502 93.5546 25.7431C93.5546 26.2127 93.4174 26.7008 93.1431 27.2076C92.8688 27.7097 92.4225 28.2978 91.8042 28.9719C91.7902 29.2137 91.7833 29.4624 91.7833 29.7181C92.0064 29.137 92.2621 28.7162 92.5504 28.4559C92.8386 28.1909 93.1083 28.0584 93.3593 28.0584C93.5918 28.0584 93.7777 28.1374 93.9172 28.2955C94.0613 28.4535 94.1334 28.6488 94.1334 28.8813C94.1334 29.137 94.0683 29.3717 93.9381 29.5856C93.808 29.7995 93.5848 29.9901 93.2687 30.1574C93.2873 30.283 93.343 30.3853 93.436 30.4643C93.5337 30.5387 93.6499 30.5759 93.7847 30.5759C93.9288 30.5759 94.0683 30.5201 94.2031 30.4085C94.338 30.2969 94.5146 30.111 94.7331 29.8506C94.7889 29.7855 94.8517 29.753 94.9214 29.753ZM92.6898 25.4432C92.6062 25.4432 92.5132 25.5641 92.4109 25.8059C92.3086 26.043 92.2087 26.3661 92.111 26.7752C92.018 27.1797 91.9413 27.6213 91.8809 28.1002C92.1691 27.7608 92.4062 27.3912 92.5922 26.9914C92.7828 26.5916 92.8781 26.2289 92.8781 25.9035C92.8781 25.7547 92.8619 25.6408 92.8293 25.5618C92.7968 25.4827 92.7503 25.4432 92.6898 25.4432ZM97.6648 29.753C97.7253 29.753 97.7717 29.7809 97.8043 29.8367C97.8415 29.8924 97.8601 29.9692 97.8601 30.0668C97.8601 30.2528 97.8159 30.3969 97.7276 30.4992C97.5556 30.7084 97.3115 30.9013 96.9953 31.078C96.6838 31.2546 96.3491 31.343 95.9911 31.343C95.503 31.343 95.1241 31.2105 94.8544 30.9455C94.5848 30.6805 94.4499 30.3178 94.4499 29.8576C94.4499 29.5368 94.5174 29.2392 94.6522 28.9649C94.787 28.686 94.973 28.4652 95.2101 28.3024C95.4518 28.1397 95.7238 28.0584 96.026 28.0584C96.2956 28.0584 96.5118 28.1397 96.6745 28.3024C96.8373 28.4605 96.9186 28.6767 96.9186 28.951C96.9186 29.2718 96.8024 29.5484 96.5699 29.7809C96.3421 30.0087 95.9539 30.19 95.4053 30.3248C95.5216 30.5387 95.7424 30.6456 96.0678 30.6456C96.277 30.6456 96.5142 30.5735 96.7792 30.4294C97.0488 30.2806 97.2813 30.0877 97.4765 29.8506C97.5323 29.7855 97.5951 29.753 97.6648 29.753ZM95.9074 28.7418C95.7354 28.7418 95.589 28.8417 95.4681 29.0417C95.3519 29.2416 95.2938 29.4833 95.2938 29.7669V29.7809C95.5681 29.7158 95.7842 29.6181 95.9423 29.488C96.1004 29.3578 96.1794 29.2067 96.1794 29.0347C96.1794 28.9463 96.1538 28.8766 96.1027 28.8255C96.0562 28.7697 95.9911 28.7418 95.9074 28.7418ZM97.7874 31.343C97.6107 31.343 97.4852 31.25 97.4108 31.064C97.3411 30.8781 97.3062 30.5805 97.3062 30.1714C97.3062 29.567 97.3922 28.9928 97.5642 28.4489C97.6061 28.3141 97.6735 28.2164 97.7665 28.156C97.8641 28.0909 97.9989 28.0584 98.171 28.0584C98.2639 28.0584 98.329 28.07 98.3662 28.0932C98.4034 28.1165 98.422 28.1606 98.422 28.2257C98.422 28.3001 98.3871 28.4675 98.3174 28.7278C98.2709 28.9138 98.2337 29.0765 98.2058 29.216C98.1779 29.3555 98.1547 29.5275 98.1361 29.7321C98.2895 29.3322 98.4615 29.0068 98.6521 28.7557C98.8427 28.5047 99.0287 28.3257 99.21 28.2188C99.396 28.1118 99.5657 28.0584 99.7191 28.0584C100.021 28.0584 100.172 28.2095 100.172 28.5117C100.172 28.5721 100.151 28.7185 100.11 28.951C100.072 29.137 100.054 29.2532 100.054 29.2997C100.054 29.4624 100.112 29.5438 100.228 29.5438C100.358 29.5438 100.526 29.4415 100.73 29.2369C100.791 29.1765 100.853 29.1463 100.919 29.1463C100.979 29.1463 101.026 29.1742 101.058 29.2299C101.095 29.2811 101.114 29.3508 101.114 29.4392C101.114 29.6112 101.067 29.746 100.974 29.8436C100.844 29.9785 100.691 30.0947 100.514 30.1923C100.342 30.2853 100.158 30.3318 99.9632 30.3318C99.7168 30.3318 99.5285 30.269 99.3983 30.1435C99.2728 30.018 99.21 29.8483 99.21 29.6344C99.21 29.5647 99.217 29.4949 99.231 29.4252C99.2402 29.3322 99.2449 29.2695 99.2449 29.2369C99.2449 29.1625 99.2193 29.1253 99.1682 29.1253C99.0985 29.1253 99.0055 29.2044 98.8892 29.3624C98.7777 29.5159 98.6661 29.7204 98.5545 29.9761C98.4429 30.2318 98.3523 30.5015 98.2825 30.7851C98.2314 31.0036 98.171 31.1524 98.1012 31.2314C98.0361 31.3058 97.9315 31.343 97.7874 31.343ZM102.907 28.0584C103.014 28.0584 103.088 28.0723 103.13 28.1002C103.172 28.1281 103.193 28.1746 103.193 28.2397C103.193 28.3513 103.132 28.7488 103.011 29.4322C102.904 30.0877 102.842 30.4759 102.823 30.5968C102.651 31.7916 102.414 32.7377 102.112 33.4351C101.809 34.1325 101.407 34.4811 100.905 34.4811C100.668 34.4811 100.475 34.4068 100.326 34.258C100.178 34.1139 100.103 33.9232 100.103 33.6861C100.103 33.4676 100.152 33.2445 100.25 33.0167C100.352 32.7889 100.538 32.5262 100.808 32.2286C101.082 31.9357 101.468 31.5987 101.965 31.2174L101.986 31.0571C102.019 30.885 102.056 30.6386 102.098 30.3178C102.005 30.6526 101.875 30.9083 101.707 31.0849C101.54 31.257 101.363 31.343 101.177 31.343C100.968 31.343 100.796 31.2477 100.661 31.0571C100.531 30.8618 100.466 30.62 100.466 30.3318C100.466 29.9831 100.489 29.6646 100.536 29.3764C100.582 29.0835 100.659 28.7743 100.766 28.4489C100.812 28.3094 100.877 28.2095 100.961 28.149C101.045 28.0886 101.177 28.0584 101.358 28.0584C101.461 28.0584 101.53 28.0746 101.568 28.1072C101.61 28.1397 101.63 28.1885 101.63 28.2536C101.63 28.2908 101.605 28.4163 101.554 28.6302C101.507 28.8022 101.47 28.958 101.442 29.0974C101.405 29.2881 101.372 29.4717 101.345 29.6484C101.317 29.8204 101.303 29.9622 101.303 30.0738C101.303 30.2504 101.352 30.3388 101.449 30.3388C101.519 30.3388 101.605 30.269 101.707 30.1296C101.814 29.9901 101.926 29.7785 102.042 29.4949C102.163 29.2113 102.279 28.8627 102.391 28.4489C102.428 28.3094 102.484 28.2095 102.558 28.149C102.637 28.0886 102.753 28.0584 102.907 28.0584ZM100.982 33.8047C101.098 33.8047 101.228 33.6699 101.372 33.4002C101.517 33.1306 101.661 32.6819 101.805 32.0543C101.447 32.3565 101.186 32.6308 101.024 32.8772C100.866 33.1282 100.787 33.3467 100.787 33.5327C100.787 33.6117 100.801 33.6768 100.828 33.728C100.861 33.7791 100.912 33.8047 100.982 33.8047Z" fill="white"/>
<defs>
<filter id="filter0_d_155_3030" x="31.7516" y="12.1799" width="31.8347" height="35.6508" filterUnits="userSpaceOnUse" color-interpolation-filters="sRGB">
<feFlood flood-opacity="0" result="BackgroundImageFix"/>
<feColorMatrix in="SourceAlpha" type="matrix" values="0 0 0 0 0 0 0 0 0 0 0 0 0 0 0 0 0 0 127 0" result="hardAlpha"/>
<feOffset dy="2.32456"/>
<feGaussianBlur stdDeviation="1.16228"/>
<feComposite in2="hardAlpha" operator="out"/>
<feColorMatrix type="matrix" values="0 0 0 0 0 0 0 0 0 0 0 0 0 0 0 0 0 0 0.25 0"/>
<feBlend mode="normal" in2="BackgroundImageFix" result="effect1_dropShadow_155_3030"/>
<feBlend mode="normal" in="SourceGraphic" in2="effect1_dropShadow_155_3030" result="shape"/>
</filter>
<filter id="filter1_d_155_3030" x="0.0930376" y="12.4602" width="30.5355" height="45.3757" filterUnits="userSpaceOnUse" color-interpolation-filters="sRGB">
<feFlood flood-opacity="0" result="BackgroundImageFix"/>
<feColorMatrix in="SourceAlpha" type="matrix" values="0 0 0 0 0 0 0 0 0 0 0 0 0 0 0 0 0 0 127 0" result="hardAlpha"/>
<feOffset dy="2.32456"/>
<feGaussianBlur stdDeviation="1.16228"/>
<feComposite in2="hardAlpha" operator="out"/>
<feColorMatrix type="matrix" values="0 0 0 0 0 0 0 0 0 0 0 0 0 0 0 0 0 0 0.25 0"/>
<feBlend mode="normal" in2="BackgroundImageFix" result="effect1_dropShadow_155_3030"/>
<feBlend mode="normal" in="SourceGraphic" in2="effect1_dropShadow_155_3030" result="shape"/>
</filter>
<filter id="filter2_d_155_3030" x="23.142" y="17.3911" width="19.0675" height="29.2197" filterUnits="userSpaceOnUse" color-interpolation-filters="sRGB">
<feFlood flood-opacity="0" result="BackgroundImageFix"/>
<feColorMatrix in="SourceAlpha" type="matrix" values="0 0 0 0 0 0 0 0 0 0 0 0 0 0 0 0 0 0 127 0" result="hardAlpha"/>
<feOffset dy="2.59741"/>
<feGaussianBlur stdDeviation="1.29871"/>
<feComposite in2="hardAlpha" operator="out"/>
<feColorMatrix type="matrix" values="0 0 0 0 0 0 0 0 0 0 0 0 0 0 0 0 0 0 0.25 0"/>
<feBlend mode="normal" in2="BackgroundImageFix" result="effect1_dropShadow_155_3030"/>
<feBlend mode="normal" in="SourceGraphic" in2="effect1_dropShadow_155_3030" result="shape"/>
</filter>
<filter id="filter3_d_155_3030" x="24.8587" y="19.085" width="15.6245" height="12.6632" filterUnits="userSpaceOnUse" color-interpolation-filters="sRGB">
<feFlood flood-opacity="0" result="BackgroundImageFix"/>
<feColorMatrix in="SourceAlpha" type="matrix" values="0 0 0 0 0 0 0 0 0 0 0 0 0 0 0 0 0 0 127 0" result="hardAlpha"/>
<feOffset/>
<feGaussianBlur stdDeviation="0.678318"/>
<feColorMatrix type="matrix" values="0 0 0 0 1 0 0 0 0 1 0 0 0 0 1 0 0 0 0.25 0"/>
<feBlend mode="normal" in2="BackgroundImageFix" result="effect1_dropShadow_155_3030"/>
<feBlend mode="normal" in="SourceGraphic" in2="effect1_dropShadow_155_3030" result="shape"/>
</filter>
<filter id="filter4_d_155_3030" x="25.1983" y="25.464" width="14.9469" height="16.9695" filterUnits="userSpaceOnUse" color-interpolation-filters="sRGB">
<feFlood flood-opacity="0" result="BackgroundImageFix"/>
<feColorMatrix in="SourceAlpha" type="matrix" values="0 0 0 0 0 0 0 0 0 0 0 0 0 0 0 0 0 0 127 0" result="hardAlpha"/>
<feOffset/>
<feGaussianBlur stdDeviation="0.508738"/>
<feColorMatrix type="matrix" values="0 0 0 0 0.117647 0 0 0 0 0.913725 0 0 0 0 1 0 0 0 0.5 0"/>
<feBlend mode="normal" in2="BackgroundImageFix" result="effect1_dropShadow_155_3030"/>
<feBlend mode="normal" in="SourceGraphic" in2="effect1_dropShadow_155_3030" result="shape"/>
</filter>
<filter id="filter5_f_155_3030" x="27.8087" y="25.6777" width="12.9438" height="18.3556" filterUnits="userSpaceOnUse" color-interpolation-filters="sRGB">
<feFlood flood-opacity="0" result="BackgroundImageFix"/>
<feBlend mode="normal" in="SourceGraphic" in2="BackgroundImageFix" result="shape"/>
<feGaussianBlur stdDeviation="1.01748" result="effect1_foregroundBlur_155_3030"/>
</filter>
<filter id="filter6_f_155_3030" x="26.3632" y="24.112" width="12.9835" height="17.5234" filterUnits="userSpaceOnUse" color-interpolation-filters="sRGB">
<feFlood flood-opacity="0" result="BackgroundImageFix"/>
<feBlend mode="normal" in="SourceGraphic" in2="BackgroundImageFix" result="shape"/>
<feGaussianBlur stdDeviation="1.18706" result="effect1_foregroundBlur_155_3030"/>
</filter>
<filter id="filter7_f_155_3030" x="25.013" y="24.2977" width="16.5442" height="5.41981" filterUnits="userSpaceOnUse" color-interpolation-filters="sRGB">
<feFlood flood-opacity="0" result="BackgroundImageFix"/>
<feBlend mode="normal" in="SourceGraphic" in2="BackgroundImageFix" result="shape"/>
<feGaussianBlur stdDeviation="0.678318" result="effect1_foregroundBlur_155_3030"/>
</filter>
<filter id="filter8_f_155_3030" x="33.3465" y="20.1845" width="4.12155" height="4.13755" filterUnits="userSpaceOnUse" color-interpolation-filters="sRGB">
<feFlood flood-opacity="0" result="BackgroundImageFix"/>
<feBlend mode="normal" in="SourceGraphic" in2="BackgroundImageFix" result="shape"/>
<feGaussianBlur stdDeviation="0.169579" result="effect1_foregroundBlur_155_3030"/>
</filter>
<filter id="filter9_f_155_3030" x="32.133" y="25.0364" width="5.07704" height="5.3556" filterUnits="userSpaceOnUse" color-interpolation-filters="sRGB">
<feFlood flood-opacity="0" result="BackgroundImageFix"/>
<feBlend mode="normal" in="SourceGraphic" in2="BackgroundImageFix" result="shape"/>
<feGaussianBlur stdDeviation="0.678318" result="effect1_foregroundBlur_155_3030"/>
</filter>
<filter id="filter10_di_155_3030" x="32.8628" y="19.5507" width="4.79987" height="4.81586" filterUnits="userSpaceOnUse" color-interpolation-filters="sRGB">
<feFlood flood-opacity="0" result="BackgroundImageFix"/>
<feColorMatrix in="SourceAlpha" type="matrix" values="0 0 0 0 0 0 0 0 0 0 0 0 0 0 0 0 0 0 127 0" result="hardAlpha"/>
<feOffset/>
<feGaussianBlur stdDeviation="0.339159"/>
<feColorMatrix type="matrix" values="0 0 0 0 0.886275 0 0 0 0 0.278431 0 0 0 0 0.141176 0 0 0 0.3 0"/>
<feBlend mode="normal" in2="BackgroundImageFix" result="effect1_dropShadow_155_3030"/>
<feBlend mode="normal" in="SourceGraphic" in2="effect1_dropShadow_155_3030" result="shape"/>
<feColorMatrix in="SourceAlpha" type="matrix" values="0 0 0 0 0 0 0 0 0 0 0 0 0 0 0 0 0 0 127 0" result="hardAlpha"/>
<feOffset/>
<feGaussianBlur stdDeviation="0.169579"/>
<feComposite in2="hardAlpha" operator="arithmetic" k2="-1" k3="1"/>
<feColorMatrix type="matrix" values="0 0 0 0 0.988235 0 0 0 0 0.647059 0 0 0 0 0.203922 0 0 0 1 0"/>
<feBlend mode="normal" in2="shape" result="effect2_innerShadow_155_3030"/>
</filter>
<filter id="filter11_f_155_3030" x="33.4913" y="19.6783" width="3.99577" height="3.55595" filterUnits="userSpaceOnUse" color-interpolation-filters="sRGB">
<feFlood flood-opacity="0" result="BackgroundImageFix"/>
<feBlend mode="normal" in="SourceGraphic" in2="BackgroundImageFix" result="shape"/>
<feGaussianBlur stdDeviation="0.508738" result="effect1_foregroundBlur_155_3030"/>
</filter>
<filter id="filter12_d_155_3030" x="24.9456" y="16.0506" width="7.39186" height="9.23085" filterUnits="userSpaceOnUse" color-interpolation-filters="sRGB">
<feFlood flood-opacity="0" result="BackgroundImageFix"/>
<feColorMatrix in="SourceAlpha" type="matrix" values="0 0 0 0 0 0 0 0 0 0 0 0 0 0 0 0 0 0 127 0" result="hardAlpha"/>
<feOffset/>
<feGaussianBlur stdDeviation="0.678317"/>
<feColorMatrix type="matrix" values="0 0 0 0 0.988235 0 0 0 0 0.909804 0 0 0 0 0.0627451 0 0 0 0.2 0"/>
<feBlend mode="normal" in2="BackgroundImageFix" result="effect1_dropShadow_155_3030"/>
<feBlend mode="normal" in="SourceGraphic" in2="effect1_dropShadow_155_3030" result="shape"/>
</filter>
<filter id="filter13_f_155_3030" x="28.8506" y="30.8851" width="4.75001" height="10.4083" filterUnits="userSpaceOnUse" color-interpolation-filters="sRGB">
<feFlood flood-opacity="0" result="BackgroundImageFix"/>
<feBlend mode="normal" in="SourceGraphic" in2="BackgroundImageFix" result="shape"/>
<feGaussianBlur stdDeviation="0.678318" result="effect1_foregroundBlur_155_3030"/>
</filter>
<linearGradient id="paint0_linear_155_3030" x1="21.945" y1="26.6203" x2="23.0159" y2="20.8223" gradientUnits="userSpaceOnUse">
<stop stop-color="white" stop-opacity="0"/>
<stop offset="1" stop-color="#C4F7FF"/>
</linearGradient>
<linearGradient id="paint1_linear_155_3030" x1="25.2735" y1="29.8311" x2="37.9996" y2="39.3333" gradientUnits="userSpaceOnUse">
<stop stop-color="#1CEAFF"/>
<stop offset="1" stop-color="#2697FF"/>
</linearGradient>
<linearGradient id="paint2_linear_155_3030" x1="30.1428" y1="37.1618" x2="42.6221" y2="43.5958" gradientUnits="userSpaceOnUse">
<stop stop-color="#1EE1FF" stop-opacity="0"/>
<stop offset="1" stop-color="#81F6FD"/>
</linearGradient>
<linearGradient id="paint3_linear_155_3030" x1="25.273" y1="29.8311" x2="37.9991" y2="39.3333" gradientUnits="userSpaceOnUse">
<stop stop-color="#FFB636"/>
<stop offset="1" stop-color="#FB7107"/>
</linearGradient>
<linearGradient id="paint4_linear_155_3030" x1="25.273" y1="29.8311" x2="37.9991" y2="39.3333" gradientUnits="userSpaceOnUse">
<stop stop-color="#FFB636"/>
<stop offset="1" stop-color="#FB7107"/>
</linearGradient>
<linearGradient id="paint5_linear_155_3030" x1="6.94033" y1="0" x2="6.94033" y2="1.51574" gradientUnits="userSpaceOnUse">
<stop stop-color="#1FE9FF"/>
<stop offset="1" stop-color="#20A0FE"/>
</linearGradient>
<linearGradient id="paint6_linear_155_3030" x1="36.8095" y1="29.8896" x2="35.5377" y2="25.1289" gradientUnits="userSpaceOnUse">
<stop stop-color="white"/>
<stop offset="0.528171" stop-color="#E3FBFF"/>
<stop offset="1" stop-color="white"/>
</linearGradient>
<linearGradient id="paint7_linear_155_3030" x1="34.7064" y1="30.0592" x2="33.4467" y2="25.4915" gradientUnits="userSpaceOnUse">
<stop stop-color="white"/>
<stop offset="0.528171" stop-color="#E3FBFF"/>
<stop offset="1" stop-color="white"/>
</linearGradient>
<linearGradient id="paint8_linear_155_3030" x1="32.3652" y1="18.9142" x2="40.5582" y2="24.7394" gradientUnits="userSpaceOnUse">
<stop stop-color="white" stop-opacity="0"/>
<stop offset="1" stop-color="#80EFFF"/>
</linearGradient>
<linearGradient id="paint9_linear_155_3030" x1="37.2543" y1="19.766" x2="35.8017" y2="20.9308" gradientUnits="userSpaceOnUse">
<stop stop-color="#7BE821"/>
<stop offset="1" stop-color="#5BCA00"/>
</linearGradient>
<linearGradient id="paint10_linear_155_3030" x1="1.72259" y1="0" x2="1.72259" y2="3.45721" gradientUnits="userSpaceOnUse">
<stop stop-color="#F34926"/>
<stop offset="1" stop-color="#DE4523"/>
</linearGradient>
<linearGradient id="paint11_linear_155_3030" x1="0.991589" y1="2.26168" x2="0.715636" y2="7.68033" gradientUnits="userSpaceOnUse">
<stop stop-color="#FCE810" stop-opacity="0"/>
<stop offset="1" stop-color="#FF9900"/>
</linearGradient>
<linearGradient id="paint12_linear_155_3030" x1="0.831137" y1="0" x2="0.831137" y2="0.507572" gradientUnits="userSpaceOnUse">
<stop stop-color="#FF4A96"/>
<stop offset="1" stop-color="#D20097"/>
</linearGradient>
</defs>
</svg>
