<svg width="5px" height="10px" viewBox="0 0 45 58" fill="none" xmlns="http://www.w3.org/2000/svg">
                        <path d="M42.4627 9.47896H1.9315C1.44288 9.47896 0.974281 9.70806 0.628777 10.1159C0.283274 10.5237 0.0891724 11.0768 0.0891724 11.6535C0.0891724 12.2302 0.283274 12.7833 0.628777 13.1911C0.974281 13.5989 1.44288 13.8281 1.9315 13.8281H3.77382V52.9699C3.77382 54.1234 4.16203 55.2296 4.85303 56.0452C5.54404 56.8608 6.48125 57.319 7.45848 57.319H36.9357C37.9129 57.319 38.8501 56.8608 39.5411 56.0452C40.2321 55.2296 40.6203 54.1234 40.6203 52.9699V13.8281H42.4627C42.9513 13.8281 43.4199 13.5989 43.7654 13.1911C44.1109 12.7833 44.305 12.2302 44.305 11.6535C44.305 11.0768 44.1109 10.5237 43.7654 10.1159C43.4199 9.70806 42.9513 9.47896 42.4627 9.47896ZM36.9357 52.9699H7.45848V13.8281H36.9357V52.9699ZM11.1431 2.95531C11.1431 2.37858 11.3372 1.82548 11.6827 1.41767C12.0282 1.00987 12.4968 0.780762 12.9855 0.780762H31.4087C31.8973 0.780762 32.3659 1.00987 32.7114 1.41767C33.0569 1.82548 33.251 2.37858 33.251 2.95531C33.251 3.53204 33.0569 4.08514 32.7114 4.49295C32.3659 4.90076 31.8973 5.12986 31.4087 5.12986H12.9855C12.4968 5.12986 12.0282 4.90076 11.6827 4.49295C11.3372 4.08514 11.1431 3.53204 11.1431 2.95531Z" fill="#C7283C"/>
                        </svg>                        