<svg width="105" height="58" viewBox="0 0 105 58" fill="none" xmlns="http://www.w3.org/2000/svg">
<g filter="url(#filter0_d_26_753)">
<path d="M48.5044 43.1828C45.6037 43.1828 43.0809 42.6587 40.9358 41.6106C38.7908 40.5381 37.1454 39.0268 35.9998 37.0768C34.8542 35.1267 34.2813 32.8598 34.2813 30.276C34.2813 26.6928 34.9517 23.5118 36.2923 20.733C37.6573 17.9542 39.4977 15.8092 41.8134 14.2979C44.129 12.7622 46.7006 11.9944 49.5282 11.9944C52.1607 11.9944 54.1595 12.6769 55.5246 14.0419C56.8896 15.3826 57.5721 17.162 57.5721 19.3802C57.5721 20.8671 57.304 22.0615 56.7677 22.9634C56.2558 23.8652 55.5124 24.3162 54.5374 24.3162C53.8548 24.3162 53.3186 24.1578 52.9286 23.8409C52.5386 23.524 52.3436 23.0609 52.3436 22.4515C52.3436 22.2321 52.3923 21.8299 52.4898 21.2449C52.6361 20.5136 52.7092 19.9286 52.7092 19.4899C52.7092 17.2717 51.527 16.1626 49.1626 16.1626C47.5538 16.1626 46.0181 16.6867 44.5556 17.7348C43.0931 18.783 41.9109 20.3308 41.009 22.3783C40.1071 24.4015 39.6561 26.8147 39.6561 29.6179C39.6561 32.5429 40.4727 34.8098 42.1059 36.4186C43.739 38.003 46.1522 38.7952 49.3454 38.7952C50.9298 38.7952 52.5264 38.6002 54.1352 38.2102C55.7683 37.7958 57.5721 37.1743 59.5465 36.3455C59.9121 36.1992 60.2168 36.1261 60.4606 36.1261C60.8506 36.1261 61.1431 36.2724 61.3381 36.5649C61.5331 36.8574 61.6306 37.2352 61.6306 37.6983C61.6306 39.1852 60.8262 40.2821 59.2174 40.989C57.4868 41.7447 55.683 42.3053 53.8061 42.6709C51.9536 43.0122 50.1863 43.1828 48.5044 43.1828Z" fill="#E8658C"/>
</g>
<g filter="url(#filter1_d_26_753)">
<path d="M25.8178 29.557C26.7158 29.557 27.3768 29.7566 27.8009 30.1557C28.2499 30.5299 28.4619 31.1535 28.437 32.0265C28.3621 33.4733 28.0254 36.3794 27.4267 40.7447L27.0899 43.0272C26.5661 46.7689 26.1545 49.4005 25.8552 50.9222C25.5558 52.4687 24.6703 53.242 23.1986 53.242C21.8266 53.242 21.1406 52.5311 21.1406 51.1092C21.1406 50.8598 21.1531 50.6727 21.1781 50.548C21.2778 49.5751 21.4649 48.3279 21.7393 46.8063C21.8141 46.3074 21.9014 45.7461 22.0012 45.1225C22.101 44.4989 22.2008 43.8254 22.3006 43.102C20.3798 43.8254 18.4466 44.1871 16.5009 44.1871C13.7071 44.1871 11.2501 43.6508 9.12976 42.5782C7.00946 41.4806 5.36311 39.934 4.19071 37.9384C3.01831 35.9429 2.43211 33.623 2.43211 30.9789C2.43211 27.287 3.13056 24.0318 4.52746 21.213C5.92437 18.3693 7.84511 16.1742 10.2897 14.6276C12.7592 13.0561 15.5156 12.2703 18.5589 12.2703C21.4774 12.2703 23.6601 12.9563 25.1068 14.3283C26.5786 15.6753 27.3144 17.4713 27.3144 19.7163C27.3144 21.1881 27.0401 22.3729 26.4913 23.271C25.9674 24.144 25.2066 24.5805 24.2088 24.5805C23.5353 24.5805 22.9865 24.4184 22.5625 24.0941C22.1634 23.7698 21.9638 23.3208 21.9638 22.7471C21.9638 22.4977 22.0137 22.0736 22.1135 21.4749C22.2631 20.7765 22.338 20.2277 22.338 19.8286C22.338 18.7809 22.0137 17.9702 21.3651 17.3965C20.7415 16.8227 19.6814 16.5359 18.1847 16.5359C16.3637 16.5359 14.6675 17.0597 13.096 18.1074C11.5494 19.1551 10.3022 20.7266 9.35426 22.8219C8.40636 24.8924 7.93242 27.3868 7.93242 30.3054C7.93242 33.2987 8.74312 35.6186 10.3645 37.2649C12.0109 38.8863 14.3806 39.697 17.4738 39.697C19.1949 39.697 21.0034 39.3728 22.8992 38.7242C23.0739 37.1028 23.236 35.5188 23.3857 33.9722H20.1304C19.2324 33.9722 18.5464 33.8101 18.0724 33.4858C17.6234 33.1366 17.3989 32.5753 17.3989 31.802C17.3989 31.1036 17.6359 30.5548 18.1099 30.1557C18.5838 29.7566 19.2199 29.557 20.0181 29.557H25.8178Z" fill="#6D921F"/>
</g>
<g filter="url(#filter2_d_26_753)">
<path d="M36.8863 27.0967L38.9785 26.5264L39.819 29.7665C39.9694 30.3462 39.6229 30.9438 39.0451 31.1013V31.1013C38.4674 31.2588 37.8771 30.9165 37.7268 30.3369L36.8863 27.0967Z" fill="#E4FBFF"/>
<ellipse cx="4.12641" cy="4.20416" rx="4.12641" ry="4.20416" transform="matrix(0.996851 0.00194413 -0.00186138 1.00302 29.416 20.9766)" fill="white"/>
<ellipse cx="3.90923" cy="3.98289" rx="3.90923" ry="3.98289" transform="matrix(0.996851 0.00194413 -0.00186138 1.00302 26.3809 23.19)" fill="white"/>
<ellipse cx="3.25769" cy="3.31907" rx="3.25769" ry="3.31907" transform="matrix(0.996851 0.00194413 -0.00186138 1.00302 32.8733 24.5342)" fill="white"/>
<g filter="url(#filter3_d_26_753)">
<path fill-rule="evenodd" clip-rule="evenodd" d="M37.6261 24.9225C37.4863 22.7271 35.707 20.9888 33.5293 20.9845C31.9549 20.9815 30.5854 21.8856 29.8915 23.2162C27.9202 23.4112 26.3773 25.1122 26.3735 27.1849C26.3694 29.3912 28.1107 31.1832 30.263 31.1874C31.5226 31.1899 32.6438 30.5794 33.3579 29.6303C33.9303 30.5703 34.9477 31.1966 36.1084 31.1988C37.9019 31.2023 39.3586 29.7147 39.362 27.8761C39.3644 26.5947 38.6602 25.481 37.6261 24.9225Z" fill="white"/>
</g>
<mask id="mask0_26_753" style="mask-type:alpha" maskUnits="userSpaceOnUse" x="26" y="20" width="14" height="12">
<path fill-rule="evenodd" clip-rule="evenodd" d="M37.6261 24.9225C37.4863 22.7271 35.707 20.9888 33.5293 20.9845C31.9549 20.9815 30.5854 21.8856 29.8915 23.2162C27.9202 23.4112 26.3773 25.1122 26.3735 27.1849C26.3694 29.3912 28.1107 31.1832 30.263 31.1874C31.5226 31.1899 32.6438 30.5794 33.3579 29.6303C33.9303 30.5703 34.9477 31.1966 36.1084 31.1988C37.9019 31.2023 39.3586 29.7147 39.362 27.8761C39.3644 26.5947 38.6602 25.481 37.6261 24.9225Z" fill="white"/>
</mask>
<g mask="url(#mask0_26_753)">
<path d="M28.7808 23.0868C23.6563 23.4242 22.1113 25.8258 21.9793 26.9844L26.7711 28.5371C29.5762 26.5797 33.9053 22.7493 28.7808 23.0868Z" fill="url(#paint0_linear_26_753)"/>
</g>
<g filter="url(#filter4_d_26_753)">
<path d="M26.3734 27.1851L39.3631 27.2104L36.5982 41.4107C36.4729 42.0539 35.912 42.5176 35.2605 42.5163L30.4191 42.5069C29.7676 42.5056 29.2084 42.0398 29.0856 41.396L26.3734 27.1851Z" fill="url(#paint1_linear_26_753)"/>
<path d="M29.2526 41.3637L26.5793 27.3566L39.1565 27.3811L36.4313 41.3777C36.3217 41.9406 35.8309 42.3463 35.2608 42.3452L30.4194 42.3357C29.8494 42.3346 29.3601 41.927 29.2526 41.3637Z" stroke="url(#paint2_linear_26_753)" stroke-width="0.341202"/>
</g>
<mask id="mask1_26_753" style="mask-type:alpha" maskUnits="userSpaceOnUse" x="26" y="27" width="14" height="16">
<path d="M26.3733 27.185L39.363 27.2103L36.5981 41.4106C36.4728 42.0539 35.9119 42.5175 35.2604 42.5162L30.419 42.5068C29.7675 42.5055 29.2084 42.0397 29.0855 41.3959L26.3733 27.185Z" fill="url(#paint3_linear_26_753)"/>
</mask>
<g mask="url(#mask1_26_753)">
<g filter="url(#filter5_f_26_753)">
<path fill-rule="evenodd" clip-rule="evenodd" d="M38.9506 28.6919L36.5717 40.1399C36.2212 41.8266 34.7798 43.041 33.0977 43.0668L30.0402 43.1135L30.0232 41.9459L33.0807 41.8992C34.2316 41.8816 35.2179 41.0507 35.4577 39.8966L37.8365 28.4486L38.9506 28.6919Z" fill="#0C8EFE"/>
</g>
</g>
<mask id="mask2_26_753" style="mask-type:alpha" maskUnits="userSpaceOnUse" x="26" y="27" width="14" height="16">
<path d="M26.3733 27.185L39.363 27.2103L36.5981 41.4106C36.4728 42.0539 35.9119 42.5175 35.2604 42.5162L30.419 42.5068C29.7675 42.5055 29.2084 42.0397 29.0855 41.3959L26.3733 27.185Z" fill="url(#paint4_linear_26_753)"/>
</mask>
<g mask="url(#mask2_26_753)">
<g filter="url(#filter6_f_26_753)">
<path d="M28.9101 27.1899L37.1949 27.2061L35.4584 39.1338C35.3604 39.807 34.7859 40.3055 34.1097 40.3042L31.9466 40.3C31.2705 40.2987 30.6978 39.7979 30.6023 39.1243L28.9101 27.1899Z" fill="#19EAFF"/>
</g>
<g filter="url(#filter7_f_26_753)">
<rect width="14.0162" height="1.55048" rx="0.682403" transform="matrix(0.991209 0.0966247 -0.0927254 0.999654 26.6107 26.2729)" fill="#0007CA" fill-opacity="0.5"/>
</g>
</g>
<rect width="14.0027" height="1.55193" rx="0.682403" transform="matrix(0.996426 0.0211656 -0.020273 1.00301 25.9117 26.3962)" fill="url(#paint5_linear_26_753)"/>
<mask id="mask3_26_753" style="mask-type:alpha" maskUnits="userSpaceOnUse" x="26" y="20" width="14" height="12">
<path fill-rule="evenodd" clip-rule="evenodd" d="M37.6261 24.9225C37.4863 22.7271 35.707 20.9888 33.5293 20.9845C31.9549 20.9815 30.5854 21.8856 29.8915 23.2162C27.9202 23.4112 26.3773 25.1122 26.3735 27.1849C26.3694 29.3912 28.1107 31.1832 30.263 31.1874C31.5226 31.1899 32.6438 30.5794 33.3579 29.6303C33.9303 30.5703 34.9477 31.1966 36.1084 31.1988C37.9019 31.2023 39.3586 29.7147 39.362 27.8761C39.3644 26.5947 38.6602 25.481 37.6261 24.9225Z" fill="white"/>
</mask>
<g mask="url(#mask3_26_753)">
<g filter="url(#filter8_f_26_753)">
<ellipse cx="1.73743" cy="1.77017" rx="1.73743" ry="1.77017" transform="matrix(0.996851 0.00194413 -0.00186138 1.00302 33.8924 21.0658)" fill="#008FDF"/>
</g>
</g>
<g filter="url(#filter9_f_26_753)">
<rect width="2.28194" height="2.72028" rx="1.14097" transform="matrix(0.964795 -0.263002 0.251079 0.967967 33.4379 27.434)" fill="#1378EB"/>
</g>
<path d="M35.0283 25.9921L36.8629 25.492L37.8926 29.4617C38.0245 29.97 37.7207 30.494 37.214 30.6321V30.6321C36.7074 30.7703 36.1898 30.4702 36.058 29.9619L35.0283 25.9921Z" fill="url(#paint6_linear_26_753)"/>
<path d="M32.5831 25.6532L34.7847 25.053L35.5715 28.0864C35.7297 28.6964 35.3651 29.3252 34.7572 29.4909V29.4909C34.1492 29.6566 33.5281 29.2965 33.3699 28.6866L32.5831 25.6532Z" fill="url(#paint7_linear_26_753)"/>
<mask id="mask4_26_753" style="mask-type:alpha" maskUnits="userSpaceOnUse" x="26" y="20" width="14" height="12">
<path fill-rule="evenodd" clip-rule="evenodd" d="M37.6261 24.9225C37.4863 22.7271 35.707 20.9888 33.5293 20.9845C31.9549 20.9815 30.5854 21.8856 29.8915 23.2162C27.9202 23.4112 26.3773 25.1122 26.3735 27.1849C26.3694 29.3912 28.1107 31.1832 30.263 31.1874C31.5226 31.1899 32.6438 30.5794 33.3579 29.6303C33.9303 30.5703 34.9477 31.1966 36.1084 31.1988C37.9019 31.2023 39.3586 29.7147 39.362 27.8761C39.3644 26.5947 38.6602 25.481 37.6261 24.9225Z" fill="white"/>
</mask>
<g mask="url(#mask4_26_753)">
<path d="M33.8227 19.0724C31.1358 20.0734 26.8279 22.5499 31.092 24.4485C35.3561 26.3471 37.2627 25.5186 37.6831 24.867C37.6993 24.9297 37.7077 24.6589 37.611 23.0742C37.5143 21.4895 35.0452 19.746 33.8227 19.0724Z" fill="url(#paint8_linear_26_753)"/>
</g>
<path d="M36.0013 21.8487C36.1033 21.4095 36.5485 20.5525 37.5131 20.6384" stroke="url(#paint9_linear_26_753)" stroke-width="0.682403" stroke-linecap="round"/>
<g filter="url(#filter10_di_26_753)">
<ellipse cx="1.73743" cy="1.77017" rx="1.73743" ry="1.77017" transform="matrix(0.996851 0.00194413 -0.00186138 1.00302 33.7462 20.7632)" fill="url(#paint10_linear_26_753)"/>
</g>
<g filter="url(#filter11_f_26_753)">
<ellipse cx="0.989428" cy="0.778393" rx="0.989428" ry="0.778393" transform="matrix(0.996851 0.00194413 -0.00186138 1.00302 34.7178 21.2437)" fill="#FFAF36"/>
</g>
<g filter="url(#filter12_d_26_753)">
<mask id="mask5_26_753" style="mask-type:alpha" maskUnits="userSpaceOnUse" x="26" y="17" width="6" height="8">
<path d="M26.4605 18.7104L27.8873 17.8696L31.1673 23.7194V23.7194C30.9182 23.7873 30.686 23.9102 30.4875 24.0792L30.4249 24.1325C30.3156 24.2255 30.1975 24.3073 30.0724 24.3765L29.7406 24.5602L26.4605 18.7104Z" fill="#FF9BC5"/>
</mask>
<g mask="url(#mask5_26_753)">
<rect width="1.65087" height="13.0485" transform="matrix(0.864246 -0.509277 0.487595 0.869596 25.5214 17.0353)" fill="#FCE810"/>
<mask id="mask6_26_753" style="mask-type:alpha" maskUnits="userSpaceOnUse" x="25" y="16" width="9" height="13">
<rect width="1.65087" height="13.0485" transform="matrix(0.864246 -0.509277 0.487595 0.869596 25.5214 17.0353)" fill="#FF9BC5"/>
</mask>
<g mask="url(#mask6_26_753)">
<path fill-rule="evenodd" clip-rule="evenodd" d="M26.7139 15.7766L25.8143 17.5576L26.4001 18.6024L27.2997 16.8214L26.7139 15.7766ZM27.8854 17.8661L26.9859 19.6471L27.5717 20.6919L28.4712 18.9109L27.8854 17.8661ZM28.1575 21.7366L29.057 19.9555L29.6428 21.0003L28.7433 22.7813L28.1575 21.7366ZM30.2286 22.0451L29.3291 23.8261L29.9149 24.8708L30.8144 23.0898L30.2286 22.0451ZM30.5007 25.9156L31.4002 24.1346L31.986 25.1793L31.0865 26.9603L30.5007 25.9156ZM32.5718 26.2241L31.6723 28.0051L32.2581 29.0498L33.1576 27.2688L32.5718 26.2241Z" fill="#FD5C9F"/>
<g style="mix-blend-mode:multiply">
<rect width="1.86783" height="8.99451" transform="matrix(0.864246 -0.509277 0.487595 0.869596 26.8383 19.5322)" fill="url(#paint11_linear_26_753)"/>
</g>
</g>
</g>
</g>
<ellipse cx="0.838065" cy="0.259958" rx="0.838065" ry="0.259958" transform="matrix(0.88044 -0.479983 0.459242 0.885297 26.3577 18.4888)" fill="url(#paint12_linear_26_753)"/>
<g filter="url(#filter13_f_26_753)">
<path d="M30.5428 40.5073L30.3889 33.0982L32.438 40.9976L30.5428 40.5073Z" fill="#1AB3FE" fill-opacity="0.3"/>
</g>
</g>
<path d="M62.7805 29.7734C62.8413 29.7734 62.8881 29.8038 62.9209 29.8646C62.9536 29.9254 62.97 30.0026 62.97 30.0961C62.97 30.3207 62.9021 30.4539 62.7665 30.496C62.4859 30.5943 62.1772 30.6504 61.8404 30.6644C61.7516 31.0573 61.5762 31.373 61.3143 31.6115C61.0523 31.8454 60.7553 31.9623 60.4233 31.9623C60.1426 31.9623 59.9018 31.8945 59.7007 31.7589C59.5042 31.6232 59.3545 31.4432 59.2516 31.2187C59.1488 30.9942 59.0973 30.7509 59.0973 30.489C59.0973 30.1336 59.1651 29.8179 59.3008 29.5419C59.4364 29.2613 59.6235 29.0438 59.862 28.8894C60.1005 28.7304 60.3648 28.6509 60.6548 28.6509C61.0102 28.6509 61.2956 28.7749 61.5107 29.0227C61.7305 29.266 61.8591 29.5676 61.8966 29.9278C62.1164 29.9137 62.3783 29.867 62.6823 29.7875C62.7197 29.7781 62.7525 29.7734 62.7805 29.7734ZM60.4794 31.2187C60.6291 31.2187 60.7577 31.1579 60.8653 31.0363C60.9775 30.9146 61.0523 30.7393 61.0898 30.5101C60.9448 30.4119 60.8325 30.2832 60.753 30.1242C60.6782 29.9652 60.6408 29.7968 60.6408 29.6191C60.6408 29.5442 60.6478 29.4694 60.6618 29.3946H60.6267C60.4396 29.3946 60.283 29.4858 60.1567 29.6682C60.0351 29.8459 59.9743 30.0985 59.9743 30.4259C59.9743 30.6831 60.0234 30.8796 60.1216 31.0152C60.2245 31.1508 60.3438 31.2187 60.4794 31.2187ZM65.1671 29.9629C65.298 29.9629 65.3635 30.0611 65.3635 30.2575C65.3635 30.627 65.0735 30.8118 64.4936 30.8118C64.3813 30.8118 64.22 30.7907 64.0095 30.7486C64.0703 31.0386 64.1194 31.3613 64.1568 31.7168C64.1989 32.0676 64.22 32.3575 64.22 32.5867C64.22 33.0919 64.1381 33.4777 63.9744 33.7443C63.8107 34.0109 63.5956 34.1442 63.329 34.1442C62.9922 34.1442 62.7513 33.9057 62.6064 33.4286C62.466 32.9515 62.3959 32.2313 62.3959 31.2678C62.3959 30.3698 62.4918 29.4601 62.6835 28.5387C62.88 27.6126 63.1466 26.8479 63.4833 26.2445C63.8247 25.6365 64.1989 25.3325 64.6058 25.3325C64.8257 25.3325 64.9964 25.4307 65.118 25.6271C65.2443 25.8236 65.3074 26.0878 65.3074 26.4199C65.3074 27.519 64.6503 28.7164 63.336 30.012C63.2892 30.4703 63.2658 30.8726 63.2658 31.2187C63.2658 31.7004 63.2822 32.1938 63.3149 32.699C63.3477 33.2088 63.4015 33.4637 63.4763 33.4637C63.6166 33.4637 63.6868 33.2205 63.6868 32.7341C63.6868 32.3692 63.661 32.0161 63.6096 31.6747C63.5628 31.3333 63.4973 30.9731 63.4132 30.5943C63.4085 30.5335 63.4272 30.4563 63.4693 30.3627C63.5161 30.2692 63.5722 30.1874 63.6377 30.1172C63.7031 30.047 63.7616 30.012 63.8131 30.012C63.9066 30.012 64.0188 30.0166 64.1498 30.026C64.1919 30.0307 64.241 30.033 64.2971 30.033C64.4842 30.033 64.6924 30.0166 64.9215 29.9839C64.959 29.9792 64.9987 29.9745 65.0408 29.9699C65.0829 29.9652 65.125 29.9629 65.1671 29.9629ZM64.4585 26.027C64.3743 26.027 64.2691 26.1697 64.1428 26.455C64.0212 26.7403 63.8996 27.1192 63.778 27.5915C63.6564 28.0593 63.5511 28.555 63.4623 29.0789C63.8364 28.6533 64.1241 28.2113 64.3252 27.7529C64.5263 27.2899 64.6292 26.8572 64.6339 26.455C64.6339 26.1697 64.5754 26.027 64.4585 26.027ZM67.6335 29.9629C67.7645 29.9629 67.83 30.0611 67.83 30.2575C67.83 30.627 67.54 30.8118 66.96 30.8118C66.8478 30.8118 66.6864 30.7907 66.476 30.7486C66.5368 31.0386 66.5859 31.3613 66.6233 31.7168C66.6654 32.0676 66.6864 32.3575 66.6864 32.5867C66.6864 33.0919 66.6046 33.4777 66.4409 33.7443C66.2772 34.0109 66.062 34.1442 65.7954 34.1442C65.4587 34.1442 65.2178 33.9057 65.0728 33.4286C64.9325 32.9515 64.8623 32.2313 64.8623 31.2678C64.8623 30.3698 64.9582 29.4601 65.15 28.5387C65.3464 27.6126 65.613 26.8479 65.9498 26.2445C66.2912 25.6365 66.6654 25.3325 67.0723 25.3325C67.2921 25.3325 67.4628 25.4307 67.5844 25.6271C67.7107 25.8236 67.7739 26.0878 67.7739 26.4199C67.7739 27.519 67.1167 28.7164 65.8024 30.012C65.7557 30.4703 65.7323 30.8726 65.7323 31.2187C65.7323 31.7004 65.7487 32.1938 65.7814 32.699C65.8141 33.2088 65.8679 33.4637 65.9428 33.4637C66.0831 33.4637 66.1532 33.2205 66.1532 32.7341C66.1532 32.3692 66.1275 32.0161 66.0761 31.6747C66.0293 31.3333 65.9638 30.9731 65.8796 30.5943C65.8749 30.5335 65.8936 30.4563 65.9357 30.3627C65.9825 30.2692 66.0386 30.1874 66.1041 30.1172C66.1696 30.047 66.2281 30.012 66.2795 30.012C66.3731 30.012 66.4853 30.0166 66.6163 30.026C66.6584 30.0307 66.7075 30.033 66.7636 30.033C66.9507 30.033 67.1588 30.0166 67.388 29.9839C67.4254 29.9792 67.4652 29.9745 67.5073 29.9699C67.5494 29.9652 67.5914 29.9629 67.6335 29.9629ZM66.925 26.027C66.8408 26.027 66.7355 26.1697 66.6092 26.455C66.4876 26.7403 66.366 27.1192 66.2444 27.5915C66.1228 28.0593 66.0176 28.555 65.9287 29.0789C66.3029 28.6533 66.5905 28.2113 66.7917 27.7529C66.9928 27.2899 67.0957 26.8572 67.1003 26.455C67.1003 26.1697 67.0419 26.027 66.925 26.027ZM70.4297 30.3627C70.4905 30.3627 70.5373 30.3908 70.57 30.4469C70.6075 30.5031 70.6262 30.5802 70.6262 30.6785C70.6262 30.8655 70.5817 31.0105 70.4929 31.1134C70.3198 31.3239 70.0743 31.518 69.7562 31.6957C69.4429 31.8735 69.1061 31.9623 68.746 31.9623C68.2549 31.9623 67.8737 31.829 67.6024 31.5624C67.3311 31.2958 67.1955 30.931 67.1955 30.468C67.1955 30.1453 67.2633 29.8459 67.399 29.57C67.5346 29.2893 67.7217 29.0672 67.9602 28.9035C68.2034 28.7398 68.477 28.6579 68.781 28.6579C69.0523 28.6579 69.2698 28.7398 69.4335 28.9035C69.5972 29.0625 69.6791 29.28 69.6791 29.5559C69.6791 29.8787 69.5621 30.157 69.3283 30.3908C69.0991 30.62 68.7086 30.8024 68.1566 30.938C68.2736 31.1532 68.4957 31.2608 68.8231 31.2608C69.0336 31.2608 69.2721 31.1883 69.5387 31.0433C69.81 30.8936 70.0439 30.6995 70.2403 30.461C70.2964 30.3955 70.3596 30.3627 70.4297 30.3627ZM68.6618 29.3455C68.4887 29.3455 68.3414 29.446 68.2198 29.6471C68.1029 29.8483 68.0444 30.0915 68.0444 30.3768V30.3908C68.3203 30.3253 68.5378 30.2271 68.6969 30.0961C68.8559 29.9652 68.9354 29.8132 68.9354 29.6401C68.9354 29.5513 68.9097 29.4811 68.8582 29.4297C68.8114 29.3735 68.746 29.3455 68.6618 29.3455ZM72.5666 30.5732C72.6274 30.5732 72.6741 30.6013 72.7069 30.6574C72.7443 30.7135 72.763 30.7907 72.763 30.8889C72.763 31.0573 72.7232 31.2023 72.6437 31.3239C72.5128 31.525 72.3397 31.6817 72.1246 31.7939C71.9141 31.9062 71.6615 31.9623 71.3669 31.9623C70.9179 31.9623 70.5694 31.829 70.3215 31.5624C70.0737 31.2912 69.9497 30.9263 69.9497 30.468C69.9497 30.1453 70.0175 29.8459 70.1532 29.57C70.2888 29.2893 70.4759 29.0672 70.7144 28.9035C70.9576 28.7398 71.2312 28.6579 71.5353 28.6579C71.8065 28.6579 72.024 28.7398 72.1877 28.9035C72.3514 29.0625 72.4333 29.28 72.4333 29.5559C72.4333 29.8787 72.3163 30.157 72.0825 30.3908C71.8533 30.62 71.4604 30.8024 70.9038 30.938C71.0161 31.1532 71.2055 31.2608 71.4721 31.2608C71.6639 31.2608 71.8206 31.2163 71.9422 31.1275C72.0684 31.0386 72.2134 30.8889 72.3771 30.6785C72.4333 30.6083 72.4964 30.5732 72.5666 30.5732ZM71.416 29.3455C71.2429 29.3455 71.0956 29.446 70.974 29.6471C70.8571 29.8483 70.7986 30.0915 70.7986 30.3768V30.3908C71.0746 30.3253 71.292 30.2271 71.4511 30.0961C71.6101 29.9652 71.6896 29.8132 71.6896 29.6401C71.6896 29.5513 71.6639 29.4811 71.6124 29.4297C71.5657 29.3735 71.5002 29.3455 71.416 29.3455ZM80.128 29.7945C79.8286 30.2528 79.4661 30.6574 79.0405 31.0082L79.6509 31.6817C79.7585 31.7939 79.8122 31.9109 79.8122 32.0325C79.8122 32.1494 79.7655 32.2453 79.6719 32.3201C79.5784 32.3996 79.4544 32.4394 79.3001 32.4394C79.0849 32.4394 78.9213 32.3739 78.809 32.243L78.2197 31.5484C77.6678 31.8243 77.1393 31.9623 76.6341 31.9623C76.26 31.9623 75.9326 31.9039 75.6519 31.7869C75.3713 31.67 75.1538 31.5086 74.9995 31.3028C74.8498 31.0971 74.775 30.8679 74.775 30.6153C74.775 30.2739 74.8802 29.9558 75.0907 29.6612C75.3058 29.3618 75.6543 29.0672 76.136 28.7772C75.8647 28.2814 75.7291 27.8441 75.7291 27.4653C75.7291 27.1285 75.7993 26.8315 75.9396 26.5743C76.0799 26.317 76.274 26.1182 76.5219 25.9779C76.7744 25.8376 77.0621 25.7675 77.3848 25.7675C77.7964 25.7675 78.1144 25.8867 78.3389 26.1253C78.5681 26.3591 78.6827 26.6818 78.6827 27.0934C78.6827 27.4349 78.5822 27.7576 78.381 28.0616C78.1846 28.3609 77.8338 28.6673 77.3287 28.9807C77.628 29.3876 78.0232 29.867 78.5143 30.4189C78.823 30.1429 79.1294 29.7945 79.4334 29.3735C79.4848 29.2987 79.5456 29.2472 79.6158 29.2192C79.686 29.1864 79.7725 29.1701 79.8754 29.1701C80.1467 29.1701 80.2823 29.2472 80.2823 29.4016C80.2823 29.4998 80.2308 29.6308 80.128 29.7945ZM77.3357 26.5041C77.1159 26.5041 76.9428 26.5883 76.8165 26.7567C76.6903 26.9204 76.6271 27.1262 76.6271 27.3741C76.6271 27.6687 76.7253 27.9914 76.9218 28.3422C77.2866 28.1271 77.5345 27.9189 77.6654 27.7178C77.7964 27.5167 77.8619 27.2969 77.8619 27.0584C77.8619 26.8853 77.8174 26.7497 77.7286 26.6514C77.6397 26.5532 77.5088 26.5041 77.3357 26.5041ZM76.6762 31.1906C77.041 31.1906 77.3895 31.1111 77.7216 30.9521C77.2258 30.3581 76.8352 29.8506 76.5499 29.4297C76.0214 29.7758 75.7572 30.1359 75.7572 30.5101C75.7572 30.7252 75.839 30.8936 76.0027 31.0152C76.1664 31.1321 76.3909 31.1906 76.6762 31.1906ZM88.373 27.4372C88.373 27.8348 88.2327 28.1785 87.9521 28.4685C87.6715 28.7538 87.2622 28.9596 86.7243 29.0859C87.0143 29.1654 87.2342 29.2964 87.3838 29.4788C87.5335 29.6565 87.6083 29.8623 87.6083 30.0961C87.6083 30.4656 87.4914 30.786 87.2575 31.0573C87.0284 31.3286 86.6916 31.539 86.2473 31.6887C85.803 31.8337 85.2674 31.9062 84.6407 31.9062C84.4068 31.9062 84.2197 31.8992 84.0794 31.8852C84.0748 32.0161 84.0186 32.1143 83.9111 32.1798C83.8035 32.2453 83.6655 32.278 83.4971 32.278C83.3288 32.278 83.2118 32.2406 83.1463 32.1658C83.0855 32.0909 83.0598 31.981 83.0692 31.836C83.1113 31.1812 83.1931 30.496 83.3147 29.7804C83.4363 29.0602 83.5907 28.3656 83.7778 27.6968C83.8105 27.5799 83.876 27.498 83.9742 27.4512C84.0724 27.4045 84.201 27.3811 84.3601 27.3811C84.6454 27.3811 84.788 27.4606 84.788 27.6196C84.788 27.6851 84.774 27.7599 84.7459 27.8441C84.6243 28.2089 84.5027 28.7047 84.3811 29.3314C84.2595 29.9535 84.173 30.5475 84.1215 31.1134C84.346 31.1321 84.5284 31.1415 84.6687 31.1415C85.3235 31.1415 85.803 31.0479 86.107 30.8609C86.4157 30.6691 86.57 30.4259 86.57 30.1312C86.57 29.9254 86.4811 29.7524 86.3034 29.6121C86.1304 29.4718 85.838 29.3946 85.4264 29.3805C85.3329 29.3759 85.2674 29.3525 85.23 29.3104C85.1926 29.2683 85.1739 29.2005 85.1739 29.1069C85.1739 28.9713 85.2019 28.8614 85.2581 28.7772C85.3142 28.693 85.4171 28.6486 85.5668 28.6439C85.8988 28.6345 86.1982 28.5854 86.4648 28.4966C86.736 28.4077 86.9489 28.2838 87.1032 28.1247C87.2575 27.961 87.3347 27.7716 87.3347 27.5565C87.3347 27.2852 87.2014 27.0724 86.9348 26.918C86.6682 26.759 86.259 26.6795 85.7071 26.6795C85.2066 26.6795 84.7225 26.745 84.2548 26.8759C83.7871 27.0022 83.3896 27.1636 83.0622 27.36C82.9125 27.4489 82.7862 27.4933 82.6833 27.4933C82.5991 27.4933 82.5336 27.4653 82.4869 27.4091C82.4448 27.3483 82.4237 27.2735 82.4237 27.1846C82.4237 27.0677 82.4471 26.9671 82.4939 26.883C82.5453 26.7988 82.6646 26.7029 82.8517 26.5953C83.2446 26.3708 83.7053 26.1954 84.2338 26.0691C84.7623 25.9429 85.3025 25.8797 85.8544 25.8797C86.701 25.8797 87.3324 26.0224 87.7486 26.3077C88.1649 26.593 88.373 26.9695 88.373 27.4372ZM89.0052 31.9623C88.7152 31.9623 88.4837 31.8571 88.3107 31.6466C88.1376 31.4361 88.0511 31.1602 88.0511 30.8188C88.0511 30.4446 88.1376 30.0915 88.3107 29.7594C88.4837 29.4226 88.7129 29.1537 88.9982 28.9526C89.2882 28.7468 89.5945 28.6439 89.9173 28.6439C90.0202 28.6439 90.088 28.6649 90.1207 28.707C90.1581 28.7445 90.1885 28.8146 90.2119 28.9175C90.3101 28.8988 90.413 28.8894 90.5206 28.8894C90.7498 28.8894 90.8644 28.9713 90.8644 29.135C90.8644 29.2332 90.8293 29.4671 90.7591 29.8366C90.6516 30.3744 90.5978 30.7486 90.5978 30.9591C90.5978 31.0292 90.6142 31.0854 90.6469 31.1275C90.6843 31.1696 90.7311 31.1906 90.7872 31.1906C90.8761 31.1906 90.9836 31.1345 91.1099 31.0222C91.2362 30.9053 91.4069 30.7182 91.6221 30.461C91.6782 30.3955 91.7413 30.3627 91.8115 30.3627C91.8723 30.3627 91.9191 30.3908 91.9518 30.4469C91.9892 30.5031 92.0079 30.5802 92.0079 30.6785C92.0079 30.8655 91.9635 31.0105 91.8746 31.1134C91.6829 31.352 91.4794 31.5531 91.2643 31.7168C91.0491 31.8805 90.841 31.9623 90.6399 31.9623C90.4855 31.9623 90.3429 31.9109 90.2119 31.808C90.0856 31.7004 89.9898 31.5554 89.9243 31.373C89.6811 31.7659 89.3747 31.9623 89.0052 31.9623ZM89.2578 31.2537C89.3607 31.2537 89.4589 31.1929 89.5524 31.0713C89.646 30.9497 89.7138 30.7884 89.7559 30.5872L90.0155 29.2964C89.819 29.301 89.6366 29.3759 89.4683 29.5209C89.3046 29.6612 89.1736 29.8483 89.0754 30.0821C88.9772 30.316 88.928 30.5639 88.928 30.8258C88.928 30.9708 88.9561 31.0783 89.0122 31.1485C89.073 31.2187 89.1549 31.2537 89.2578 31.2537ZM95.4928 30.3627C95.5536 30.3627 95.6004 30.3908 95.6331 30.4469C95.6706 30.5031 95.6893 30.5802 95.6893 30.6785C95.6893 30.8655 95.6448 31.0105 95.556 31.1134C95.3455 31.3707 95.1327 31.5765 94.9175 31.7308C94.7024 31.8852 94.4475 31.9623 94.1528 31.9623C93.7927 31.9623 93.5027 31.8594 93.2829 31.6536C93.0631 31.4478 92.9531 31.1742 92.9531 30.8328C92.9531 30.6504 93.0467 30.5194 93.2338 30.4399C93.4396 30.3511 93.5869 30.2575 93.6758 30.1593C93.7646 30.0564 93.8091 29.9324 93.8091 29.7875C93.8091 29.7033 93.7903 29.6401 93.7529 29.598C93.7202 29.5559 93.6781 29.5349 93.6266 29.5349C93.5004 29.5349 93.36 29.6261 93.2057 29.8085C93.056 29.9909 92.9157 30.2271 92.7848 30.5171C92.6538 30.8024 92.5509 31.0971 92.4761 31.4011C92.4246 31.6209 92.3638 31.7706 92.2937 31.8501C92.2282 31.9249 92.1229 31.9623 91.978 31.9623C91.833 31.9623 91.7254 31.9109 91.6552 31.808C91.5898 31.7004 91.5453 31.5367 91.5219 31.3169C91.4986 31.0971 91.4869 30.7743 91.4869 30.3487C91.4869 29.6284 91.5594 28.8778 91.7043 28.0967C91.854 27.3156 92.0715 26.6608 92.3568 26.1323C92.6468 25.5991 92.9929 25.3325 93.3951 25.3325C93.6103 25.3325 93.7833 25.426 93.9143 25.6131C94.0499 25.7955 94.1177 26.0341 94.1177 26.3287C94.1177 26.8011 93.9798 27.2922 93.7038 27.802C93.4279 28.3071 92.9789 28.8988 92.3568 29.577C92.3428 29.8202 92.3358 30.0704 92.3358 30.3277C92.5603 29.743 92.8175 29.3197 93.1075 29.0578C93.3975 28.7912 93.6687 28.6579 93.9213 28.6579C94.1552 28.6579 94.3422 28.7374 94.4826 28.8965C94.6276 29.0555 94.7 29.2519 94.7 29.4858C94.7 29.743 94.6346 29.9792 94.5036 30.1944C94.3726 30.4095 94.1481 30.6013 93.8301 30.7697C93.8488 30.8959 93.9049 30.9988 93.9985 31.0783C94.0967 31.1532 94.2136 31.1906 94.3493 31.1906C94.4943 31.1906 94.6346 31.1345 94.7702 31.0222C94.9058 30.91 95.0836 30.7229 95.3034 30.461C95.3595 30.3955 95.4227 30.3627 95.4928 30.3627ZM93.2478 26.027C93.1636 26.027 93.0701 26.1487 92.9672 26.3919C92.8643 26.6304 92.7637 26.9555 92.6655 27.367C92.572 27.774 92.4948 28.2183 92.434 28.7C92.724 28.3586 92.9625 27.9868 93.1496 27.5845C93.3413 27.1823 93.4372 26.8175 93.4372 26.4901C93.4372 26.3404 93.4209 26.2258 93.3881 26.1463C93.3554 26.0668 93.3086 26.027 93.2478 26.027ZM98.2527 30.3627C98.3135 30.3627 98.3603 30.3908 98.393 30.4469C98.4305 30.5031 98.4492 30.5802 98.4492 30.6785C98.4492 30.8655 98.4047 31.0105 98.3159 31.1134C98.1428 31.3239 97.8973 31.518 97.5792 31.6957C97.2659 31.8735 96.9291 31.9623 96.569 31.9623C96.0779 31.9623 95.6967 31.829 95.4254 31.5624C95.1541 31.2958 95.0185 30.931 95.0185 30.468C95.0185 30.1453 95.0863 29.8459 95.2219 29.57C95.3576 29.2893 95.5447 29.0672 95.7832 28.9035C96.0264 28.7398 96.3 28.6579 96.604 28.6579C96.8753 28.6579 97.0928 28.7398 97.2565 28.9035C97.4202 29.0625 97.5021 29.28 97.5021 29.5559C97.5021 29.8787 97.3851 30.157 97.1513 30.3908C96.9221 30.62 96.5315 30.8024 95.9796 30.938C96.0966 31.1532 96.3187 31.2608 96.6461 31.2608C96.8566 31.2608 97.0951 31.1883 97.3617 31.0433C97.633 30.8936 97.8669 30.6995 98.0633 30.461C98.1194 30.3955 98.1826 30.3627 98.2527 30.3627ZM96.4848 29.3455C96.3117 29.3455 96.1644 29.446 96.0428 29.6471C95.9259 29.8483 95.8674 30.0915 95.8674 30.3768V30.3908C96.1433 30.3253 96.3608 30.2271 96.5199 30.0961C96.6789 29.9652 96.7584 29.8132 96.7584 29.6401C96.7584 29.5513 96.7327 29.4811 96.6812 29.4297C96.6344 29.3735 96.569 29.3455 96.4848 29.3455ZM98.3761 31.9623C98.1983 31.9623 98.072 31.8688 97.9972 31.6817C97.927 31.4946 97.892 31.1953 97.892 30.7837C97.892 30.1757 97.9785 29.598 98.1515 29.0508C98.1936 28.9152 98.2615 28.817 98.355 28.7562C98.4532 28.6907 98.5889 28.6579 98.7619 28.6579C98.8555 28.6579 98.9209 28.6696 98.9584 28.693C98.9958 28.7164 99.0145 28.7608 99.0145 28.8263C99.0145 28.9011 98.9794 29.0695 98.9092 29.3314C98.8625 29.5185 98.8251 29.6822 98.797 29.8225C98.7689 29.9629 98.7455 30.1359 98.7268 30.3417C98.8812 29.9395 99.0542 29.6121 99.246 29.3595C99.4378 29.1069 99.6248 28.9269 99.8073 28.8193C99.9943 28.7117 100.165 28.6579 100.319 28.6579C100.623 28.6579 100.775 28.8099 100.775 29.114C100.775 29.1748 100.754 29.3221 100.712 29.5559C100.675 29.743 100.656 29.86 100.656 29.9067C100.656 30.0704 100.715 30.1523 100.832 30.1523C100.963 30.1523 101.131 30.0494 101.337 29.8436C101.397 29.7828 101.461 29.7524 101.526 29.7524C101.587 29.7524 101.634 29.7804 101.666 29.8366C101.704 29.888 101.723 29.9582 101.723 30.047C101.723 30.2201 101.676 30.3557 101.582 30.4539C101.451 30.5896 101.297 30.7065 101.119 30.8047C100.946 30.8983 100.761 30.945 100.565 30.945C100.317 30.945 100.128 30.8819 99.9967 30.7556C99.8704 30.6293 99.8073 30.4586 99.8073 30.2435C99.8073 30.1733 99.8143 30.1032 99.8283 30.033C99.8377 29.9395 99.8423 29.8763 99.8423 29.8436C99.8423 29.7687 99.8166 29.7313 99.7652 29.7313C99.695 29.7313 99.6015 29.8108 99.4845 29.9699C99.3723 30.1242 99.26 30.33 99.1478 30.5872C99.0355 30.8445 98.9443 31.1158 98.8742 31.4011C98.8227 31.6209 98.7619 31.7706 98.6918 31.8501C98.6263 31.9249 98.521 31.9623 98.3761 31.9623ZM103.526 28.6579C103.634 28.6579 103.709 28.672 103.751 28.7C103.793 28.7281 103.814 28.7749 103.814 28.8403C103.814 28.9526 103.753 29.3525 103.631 30.04C103.524 30.6995 103.461 31.09 103.442 31.2116C103.269 32.4137 103.03 33.3655 102.726 34.067C102.422 34.7686 102.018 35.1194 101.513 35.1194C101.274 35.1194 101.08 35.0446 100.93 34.8949C100.781 34.7499 100.706 34.5581 100.706 34.3196C100.706 34.0998 100.755 33.8753 100.853 33.6461C100.956 33.4169 101.143 33.1527 101.414 32.8533C101.69 32.5587 102.079 32.2196 102.579 31.836L102.6 31.6747C102.633 31.5016 102.67 31.2537 102.712 30.931C102.619 31.2678 102.488 31.525 102.319 31.7027C102.151 31.8758 101.973 31.9623 101.786 31.9623C101.576 31.9623 101.403 31.8664 101.267 31.6747C101.136 31.4782 101.071 31.235 101.071 30.945C101.071 30.5943 101.094 30.2739 101.141 29.9839C101.188 29.6892 101.265 29.3782 101.372 29.0508C101.419 28.9105 101.485 28.8099 101.569 28.7491C101.653 28.6883 101.786 28.6579 101.969 28.6579C102.072 28.6579 102.142 28.6743 102.179 28.707C102.221 28.7398 102.242 28.7889 102.242 28.8544C102.242 28.8918 102.217 29.0181 102.165 29.2332C102.118 29.4063 102.081 29.563 102.053 29.7033C102.015 29.895 101.983 30.0798 101.955 30.2575C101.927 30.4306 101.913 30.5732 101.913 30.6855C101.913 30.8632 101.962 30.9521 102.06 30.9521C102.13 30.9521 102.217 30.8819 102.319 30.7416C102.427 30.6013 102.539 30.3885 102.656 30.1032C102.778 29.8179 102.895 29.4671 103.007 29.0508C103.044 28.9105 103.101 28.8099 103.175 28.7491C103.255 28.6883 103.372 28.6579 103.526 28.6579ZM101.59 34.4389C101.707 34.4389 101.838 34.3032 101.983 34.032C102.128 33.7607 102.273 33.3093 102.418 32.6779C102.058 32.9819 101.796 33.2579 101.632 33.5058C101.473 33.7583 101.393 33.9782 101.393 34.1653C101.393 34.2448 101.407 34.3102 101.435 34.3617C101.468 34.4131 101.52 34.4389 101.59 34.4389Z" fill="#5A5656"/>
<defs>
<filter id="filter0_d_26_753" x="31.9427" y="11.9944" width="32.0264" height="35.8655" filterUnits="userSpaceOnUse" color-interpolation-filters="sRGB">
<feFlood flood-opacity="0" result="BackgroundImageFix"/>
<feColorMatrix in="SourceAlpha" type="matrix" values="0 0 0 0 0 0 0 0 0 0 0 0 0 0 0 0 0 0 127 0" result="hardAlpha"/>
<feOffset dy="2.33857"/>
<feGaussianBlur stdDeviation="1.16928"/>
<feComposite in2="hardAlpha" operator="out"/>
<feColorMatrix type="matrix" values="0 0 0 0 0 0 0 0 0 0 0 0 0 0 0 0 0 0 0.25 0"/>
<feBlend mode="normal" in2="BackgroundImageFix" result="effect1_dropShadow_26_753"/>
<feBlend mode="normal" in="SourceGraphic" in2="effect1_dropShadow_26_753" result="shape"/>
</filter>
<filter id="filter1_d_26_753" x="0.0935631" y="12.2703" width="30.7194" height="45.6488" filterUnits="userSpaceOnUse" color-interpolation-filters="sRGB">
<feFlood flood-opacity="0" result="BackgroundImageFix"/>
<feColorMatrix in="SourceAlpha" type="matrix" values="0 0 0 0 0 0 0 0 0 0 0 0 0 0 0 0 0 0 127 0" result="hardAlpha"/>
<feOffset dy="2.33857"/>
<feGaussianBlur stdDeviation="1.16928"/>
<feComposite in2="hardAlpha" operator="out"/>
<feColorMatrix type="matrix" values="0 0 0 0 0 0 0 0 0 0 0 0 0 0 0 0 0 0 0.25 0"/>
<feBlend mode="normal" in2="BackgroundImageFix" result="effect1_dropShadow_26_753"/>
<feBlend mode="normal" in="SourceGraphic" in2="effect1_dropShadow_26_753" result="shape"/>
</filter>
<filter id="filter2_d_26_753" x="23.2809" y="17.8532" width="19.1863" height="29.8892" filterUnits="userSpaceOnUse" color-interpolation-filters="sRGB">
<feFlood flood-opacity="0" result="BackgroundImageFix"/>
<feColorMatrix in="SourceAlpha" type="matrix" values="0 0 0 0 0 0 0 0 0 0 0 0 0 0 0 0 0 0 127 0" result="hardAlpha"/>
<feOffset dy="2.61305"/>
<feGaussianBlur stdDeviation="1.30653"/>
<feComposite in2="hardAlpha" operator="out"/>
<feColorMatrix type="matrix" values="0 0 0 0 0 0 0 0 0 0 0 0 0 0 0 0 0 0 0.25 0"/>
<feBlend mode="normal" in2="BackgroundImageFix" result="effect1_dropShadow_26_753"/>
<feBlend mode="normal" in="SourceGraphic" in2="effect1_dropShadow_26_753" result="shape"/>
</filter>
<filter id="filter3_d_26_753" x="25.0087" y="19.6198" width="15.7181" height="12.9439" filterUnits="userSpaceOnUse" color-interpolation-filters="sRGB">
<feFlood flood-opacity="0" result="BackgroundImageFix"/>
<feColorMatrix in="SourceAlpha" type="matrix" values="0 0 0 0 0 0 0 0 0 0 0 0 0 0 0 0 0 0 127 0" result="hardAlpha"/>
<feOffset/>
<feGaussianBlur stdDeviation="0.682403"/>
<feColorMatrix type="matrix" values="0 0 0 0 1 0 0 0 0 1 0 0 0 0 1 0 0 0 0.25 0"/>
<feBlend mode="normal" in2="BackgroundImageFix" result="effect1_dropShadow_26_753"/>
<feBlend mode="normal" in="SourceGraphic" in2="effect1_dropShadow_26_753" result="shape"/>
</filter>
<filter id="filter4_d_26_753" x="25.3497" y="26.1615" width="15.037" height="17.3784" filterUnits="userSpaceOnUse" color-interpolation-filters="sRGB">
<feFlood flood-opacity="0" result="BackgroundImageFix"/>
<feColorMatrix in="SourceAlpha" type="matrix" values="0 0 0 0 0 0 0 0 0 0 0 0 0 0 0 0 0 0 127 0" result="hardAlpha"/>
<feOffset/>
<feGaussianBlur stdDeviation="0.511802"/>
<feColorMatrix type="matrix" values="0 0 0 0 0.117647 0 0 0 0 0.913725 0 0 0 0 1 0 0 0 0.5 0"/>
<feBlend mode="normal" in2="BackgroundImageFix" result="effect1_dropShadow_26_753"/>
<feBlend mode="normal" in="SourceGraphic" in2="effect1_dropShadow_26_753" result="shape"/>
</filter>
<filter id="filter5_f_26_753" x="27.9759" y="26.4014" width="13.0219" height="18.7594" filterUnits="userSpaceOnUse" color-interpolation-filters="sRGB">
<feFlood flood-opacity="0" result="BackgroundImageFix"/>
<feBlend mode="normal" in="SourceGraphic" in2="BackgroundImageFix" result="shape"/>
<feGaussianBlur stdDeviation="1.0236" result="effect1_foregroundBlur_26_753"/>
</filter>
<filter id="filter6_f_26_753" x="26.5217" y="24.8015" width="13.0617" height="17.8911" filterUnits="userSpaceOnUse" color-interpolation-filters="sRGB">
<feFlood flood-opacity="0" result="BackgroundImageFix"/>
<feBlend mode="normal" in="SourceGraphic" in2="BackgroundImageFix" result="shape"/>
<feGaussianBlur stdDeviation="1.19421" result="effect1_foregroundBlur_26_753"/>
</filter>
<filter id="filter7_f_26_753" x="25.1624" y="24.9708" width="16.6458" height="5.50845" filterUnits="userSpaceOnUse" color-interpolation-filters="sRGB">
<feFlood flood-opacity="0" result="BackgroundImageFix"/>
<feBlend mode="normal" in="SourceGraphic" in2="BackgroundImageFix" result="shape"/>
<feGaussianBlur stdDeviation="0.682403" result="effect1_foregroundBlur_26_753"/>
</filter>
<filter id="filter8_f_26_753" x="33.5479" y="20.728" width="4.14633" height="4.23343" filterUnits="userSpaceOnUse" color-interpolation-filters="sRGB">
<feFlood flood-opacity="0" result="BackgroundImageFix"/>
<feBlend mode="normal" in="SourceGraphic" in2="BackgroundImageFix" result="shape"/>
<feGaussianBlur stdDeviation="0.170601" result="effect1_foregroundBlur_26_753"/>
</filter>
<filter id="filter9_f_26_753" x="32.3226" y="25.7288" width="5.11517" height="5.44339" filterUnits="userSpaceOnUse" color-interpolation-filters="sRGB">
<feFlood flood-opacity="0" result="BackgroundImageFix"/>
<feBlend mode="normal" in="SourceGraphic" in2="BackgroundImageFix" result="shape"/>
<feGaussianBlur stdDeviation="0.682403" result="effect1_foregroundBlur_26_753"/>
</filter>
<filter id="filter10_di_26_753" x="33.0605" y="20.0841" width="4.82873" height="4.91586" filterUnits="userSpaceOnUse" color-interpolation-filters="sRGB">
<feFlood flood-opacity="0" result="BackgroundImageFix"/>
<feColorMatrix in="SourceAlpha" type="matrix" values="0 0 0 0 0 0 0 0 0 0 0 0 0 0 0 0 0 0 127 0" result="hardAlpha"/>
<feOffset/>
<feGaussianBlur stdDeviation="0.341202"/>
<feColorMatrix type="matrix" values="0 0 0 0 0.886275 0 0 0 0 0.278431 0 0 0 0 0.141176 0 0 0 0.3 0"/>
<feBlend mode="normal" in2="BackgroundImageFix" result="effect1_dropShadow_26_753"/>
<feBlend mode="normal" in="SourceGraphic" in2="effect1_dropShadow_26_753" result="shape"/>
<feColorMatrix in="SourceAlpha" type="matrix" values="0 0 0 0 0 0 0 0 0 0 0 0 0 0 0 0 0 0 127 0" result="hardAlpha"/>
<feOffset/>
<feGaussianBlur stdDeviation="0.170601"/>
<feComposite in2="hardAlpha" operator="arithmetic" k2="-1" k3="1"/>
<feColorMatrix type="matrix" values="0 0 0 0 0.988235 0 0 0 0 0.647059 0 0 0 0 0.203922 0 0 0 1 0"/>
<feBlend mode="normal" in2="shape" result="effect2_innerShadow_26_753"/>
</filter>
<filter id="filter11_f_26_753" x="33.6927" y="20.222" width="4.01987" height="3.6087" filterUnits="userSpaceOnUse" color-interpolation-filters="sRGB">
<feFlood flood-opacity="0" result="BackgroundImageFix"/>
<feBlend mode="normal" in="SourceGraphic" in2="BackgroundImageFix" result="shape"/>
<feGaussianBlur stdDeviation="0.511802" result="effect1_foregroundBlur_26_753"/>
</filter>
<filter id="filter12_d_26_753" x="25.0957" y="16.5048" width="7.4364" height="9.42013" filterUnits="userSpaceOnUse" color-interpolation-filters="sRGB">
<feFlood flood-opacity="0" result="BackgroundImageFix"/>
<feColorMatrix in="SourceAlpha" type="matrix" values="0 0 0 0 0 0 0 0 0 0 0 0 0 0 0 0 0 0 127 0" result="hardAlpha"/>
<feOffset/>
<feGaussianBlur stdDeviation="0.682403"/>
<feColorMatrix type="matrix" values="0 0 0 0 0.988235 0 0 0 0 0.909804 0 0 0 0 0.0627451 0 0 0 0.2 0"/>
<feBlend mode="normal" in2="BackgroundImageFix" result="effect1_dropShadow_26_753"/>
<feBlend mode="normal" in="SourceGraphic" in2="effect1_dropShadow_26_753" result="shape"/>
</filter>
<filter id="filter13_f_26_753" x="29.0241" y="31.7334" width="4.77862" height="10.629" filterUnits="userSpaceOnUse" color-interpolation-filters="sRGB">
<feFlood flood-opacity="0" result="BackgroundImageFix"/>
<feBlend mode="normal" in="SourceGraphic" in2="BackgroundImageFix" result="shape"/>
<feGaussianBlur stdDeviation="0.682403" result="effect1_foregroundBlur_26_753"/>
</filter>
<linearGradient id="paint0_linear_26_753" x1="22.0768" y1="27.3274" x2="23.1971" y2="21.3835" gradientUnits="userSpaceOnUse">
<stop stop-color="white" stop-opacity="0"/>
<stop offset="1" stop-color="#C4F7FF"/>
</linearGradient>
<linearGradient id="paint1_linear_26_753" x1="25.4254" y1="30.6237" x2="38.4122" y2="40.1267" gradientUnits="userSpaceOnUse">
<stop stop-color="#1CEAFF"/>
<stop offset="1" stop-color="#2697FF"/>
</linearGradient>
<linearGradient id="paint2_linear_26_753" x1="30.324" y1="38.1491" x2="42.9838" y2="44.5455" gradientUnits="userSpaceOnUse">
<stop stop-color="#1EE1FF" stop-opacity="0"/>
<stop offset="1" stop-color="#81F6FD"/>
</linearGradient>
<linearGradient id="paint3_linear_26_753" x1="25.4253" y1="30.6236" x2="38.4121" y2="40.1266" gradientUnits="userSpaceOnUse">
<stop stop-color="#FFB636"/>
<stop offset="1" stop-color="#FB7107"/>
</linearGradient>
<linearGradient id="paint4_linear_26_753" x1="25.4253" y1="30.6236" x2="38.4121" y2="40.1266" gradientUnits="userSpaceOnUse">
<stop stop-color="#FFB636"/>
<stop offset="1" stop-color="#FB7107"/>
</linearGradient>
<linearGradient id="paint5_linear_26_753" x1="7.00135" y1="0" x2="7.00135" y2="1.55193" gradientUnits="userSpaceOnUse">
<stop stop-color="#1FE9FF"/>
<stop offset="1" stop-color="#20A0FE"/>
</linearGradient>
<linearGradient id="paint6_linear_26_753" x1="37.0309" y1="30.6835" x2="35.7023" y2="25.8098" gradientUnits="userSpaceOnUse">
<stop stop-color="white"/>
<stop offset="0.528171" stop-color="#E3FBFF"/>
<stop offset="1" stop-color="white"/>
</linearGradient>
<linearGradient id="paint7_linear_26_753" x1="34.9152" y1="30.8575" x2="33.5996" y2="26.1821" gradientUnits="userSpaceOnUse">
<stop stop-color="white"/>
<stop offset="0.528171" stop-color="#E3FBFF"/>
<stop offset="1" stop-color="white"/>
</linearGradient>
<linearGradient id="paint8_linear_26_753" x1="32.56" y1="19.4166" x2="40.9134" y2="25.2371" gradientUnits="userSpaceOnUse">
<stop stop-color="white" stop-opacity="0"/>
<stop offset="1" stop-color="#80EFFF"/>
</linearGradient>
<linearGradient id="paint9_linear_26_753" x1="37.4782" y1="20.291" x2="35.9939" y2="21.4575" gradientUnits="userSpaceOnUse">
<stop stop-color="#7BE821"/>
<stop offset="1" stop-color="#5BCA00"/>
</linearGradient>
<linearGradient id="paint10_linear_26_753" x1="1.73743" y1="0" x2="1.73743" y2="3.54035" gradientUnits="userSpaceOnUse">
<stop stop-color="#F34926"/>
<stop offset="1" stop-color="#DE4523"/>
</linearGradient>
<linearGradient id="paint11_linear_26_753" x1="1.00013" y1="2.31607" x2="0.713243" y2="7.86458" gradientUnits="userSpaceOnUse">
<stop stop-color="#FCE810" stop-opacity="0"/>
<stop offset="1" stop-color="#FF9900"/>
</linearGradient>
<linearGradient id="paint12_linear_26_753" x1="0.838065" y1="0" x2="0.838065" y2="0.519917" gradientUnits="userSpaceOnUse">
<stop stop-color="#FF4A96"/>
<stop offset="1" stop-color="#D20097"/>
</linearGradient>
</defs>
</svg>
